<?xml version="1.0" encoding="utf-8"?>
<!-- Generator: Adobe Illustrator 21.0.0, SVG Export Plug-In . SVG Version: 6.00 Build 0)  -->
<svg version="1.1" id="Layer_1" xmlns="http://www.w3.org/2000/svg" xmlns:xlink="http://www.w3.org/1999/xlink" x="0px" y="0px"
	 viewBox="0 0 1607 405" style="enable-background:new 0 0 1607 405;" xml:space="preserve">
<style type="text/css">
	.st0{fill:#F5F5F5;}
	.st1{fill:#E9E9E8;}
	.st2{fill:#DA875B;}
	.st3{fill:#00CCCC;}
	.st4{fill:#011C38;}
	.st5{fill:#E4E3E2;}
	.st6{fill:#011C38;stroke:#011C38;stroke-width:1.42;stroke-miterlimit:10;}
	.st7{fill:#88CAD6;}
	.st8{font-family:'MyriadPro-Regular';}
	.st9{font-size:11px;}
	.st10{fill:#011C38;stroke:#011C38;stroke-width:0.99;stroke-miterlimit:10;}
	.st11{fill:#EFEFEF;}
	.st12{fill:#01133D;}
	.st13{fill:#FAFAFA;}
</style>
<title>Artigraphy_LOGO_Artboard 1</title>
<g id="Layer_2">
	<rect class="st0" width="1607" height="405"/>
</g>
<g id="Layer_1-2">
	<rect y="-1.9" class="st0" width="1608.6" height="405"/>
	<path class="st1" d="M1064.1,6h175.1v175.1c0,8.3-6.7,15-15,15h-175.1V21C1049.1,12.7,1055.8,6,1064.1,6z"/>
	<circle class="st2" cx="1107" cy="63" r="46"/>
	<circle class="st3" cx="1181.3" cy="138.8" r="46"/>
	<path class="st4" d="M1210.2,167.1h-57.7v-56.5h57.7V167.1z M1205.9,162.6V115H1157v47.6H1205.9z"/>
	<path class="st4" d="M1172.7,125h6.4l7.6,25.2h-5.2l-1.8-6.5h-6.6c-0.3,0-0.3,0.1-0.4,0.3c-0.6,2-1.1,3.9-1.7,5.9
		c0,0.1-0.1,0.2-0.1,0.3h-4.7l0.6-2l6-20.5c0-0.2,0.1-0.3,0.1-0.5C1172.7,126.5,1172.7,125.7,1172.7,125z M1178.6,139.4l-2.5-9.9
		l-2.5,9.9H1178.6z"/>
	<path class="st4" d="M1194,150.2h-5V131h5V150.2z"/>
	<path class="st4" d="M1136.3,34.3v57.5h-58.5V34.3H1136.3z M1082.5,38.9v48.3h49.1V38.9L1082.5,38.9z"/>
	<path class="st4" d="M1096.9,64.5v7.6h-4.9V48.6c0.5,0,0.9,0,1.4-0.1c1.8,0,3.5-0.1,5.3-0.1c1.6,0,3.1,0.2,4.6,0.7
		c2.5,0.8,4.2,3,4.5,5.6c0.3,1.9,0,3.8-0.9,5.5c-0.8,1.3-1.9,2.4-3.3,3.1c-1.5,0.8-3.3,1.2-5,1.2C1098,64.6,1097.5,64.6,1096.9,64.5
		z M1096.9,60.3h2.3c0.7,0,1.4-0.3,1.9-0.7c1.5-1,2.1-2.8,1.6-4.5c-0.3-1.6-1.6-2.8-3.2-2.9c-0.9-0.1-1.7-0.1-2.6,0L1096.9,60.3
		L1096.9,60.3z"/>
	<path class="st4" d="M1109.7,67c0.9,0.4,1.8,0.8,2.8,1.1c1,0.3,2,0.4,3,0.3c0.8,0,1.5-0.7,1.5-1.5c0-0.3-0.1-0.6-0.3-0.8
		c-0.2-0.5-0.7-0.9-1.2-1.1c-0.7-0.3-1.5-0.6-2.2-0.9c-1.1-0.4-2-1-2.8-1.8c-0.9-0.9-1.2-2.1-1-3.3c0.3-2.2,1.9-4,4.1-4.5
		c2.5-0.8,5.1-0.5,7.4,0.7c0.1,0,0.2,0.1,0.2,0.2v3.8l-1.5-0.6c-1-0.5-2.2-0.7-3.3-0.7c-0.5,0-0.9,0.2-1.3,0.4
		c-0.5,0.4-0.7,1-0.4,1.6l0.3,0.3c0.3,0.2,0.7,0.4,1,0.6c1,0.4,2,0.8,3,1.3c1.2,0.5,2.2,1.5,2.8,2.7c1.1,2.7-0.1,5.7-2.7,6.9
		c-2.2,1-4.8,1.1-7.1,0.3c-0.7-0.2-1.4-0.5-2.1-0.8c-0.1-0.1-0.2-0.2-0.2-0.3C1109.7,69.4,1109.7,68.2,1109.7,67z"/>
	<path class="st5" d="M961.1,204.7H1139v175.1c0,8.3-6.7,15-15,15H948.9V216.9C948.9,210.2,954.3,204.7,961.1,204.7
		C961.1,204.7,961.1,204.7,961.1,204.7z"/>
	<circle class="st2" cx="1007.7" cy="263.3" r="46"/>
	<circle class="st3" cx="1081.8" cy="337.3" r="46"/>
	<path class="st4" d="M1082.3,304.8l1.7,0.2c4.8,0.6,9.2,2.7,12.7,6.1l-2.9,2.8c-0.5-0.4-1.1-0.9-1.7-1.4c-2.6-2-5.7-3.2-8.9-3.5
		c-10-1.1-19,6.1-20.1,16.1c-0.6,5,1,10,4.3,13.8c1.2,1.3,2.4,2.6,3.4,4c2.1,2.7,3.4,5.8,3.8,9.2c0.1,0.5,0.1,1,0.2,1.5h12.6
		c0.2-0.9,0.3-1.8,0.5-2.7c0.7-3.4,2.3-6.6,4.6-9.3c0.8-1,1.8-1.9,2.6-2.9c2.2-2.5,3.7-5.5,4.2-8.8c0.2-1.3,0.3-2.6,0.1-3.9
		c0-0.1,0-0.3,0.1-0.4l3.3-3.3c0.1-0.1,0.2-0.1,0.2-0.2c0.2,1.3,0.4,2.4,0.5,3.6c0.4,5.4-1.3,10.8-4.8,14.9
		c-0.9,1.1-1.9,2.1-2.8,3.2c-1.8,2-3.1,4.4-3.9,7c-0.4,1.6-0.6,3.2-0.6,4.9v7.8c0.1,1.6-0.5,3.1-1.6,4.2c-1,1.3-2.6,2-4.2,2
		c-3,0.1-5.9,0.1-8.8,0c-2.9-0.1-5.2-2.3-5.7-5.1c0-0.4-0.1-0.8-0.1-1.2v-7.6c0.1-4.7-1.7-9.2-5-12.6c-1.4-1.4-2.6-2.9-3.7-4.5
		c-1.8-2.7-3-5.9-3.3-9.2c-0.6-4.7,0.4-9.5,2.8-13.6c3.2-5.7,8.8-9.7,15.2-10.9c0.9-0.1,1.7-0.2,2.6-0.3h0.3L1082.3,304.8z
		 M1075,357.6v5.9c-0.1,1.1,0.7,2.1,1.8,2.2c0,0,0.1,0,0.1,0h8.2c1.1,0.1,2.2-0.8,2.3-1.9v-6.2H1075z"/>
	<path class="st4" d="M1081.1,338.1l-10.5-10.5l2.8-2.8l7.7,7.7l20.9-20.9l2.8,2.8L1081.1,338.1z"/>
	<path class="st5" d="M550.6,204h175.7v176c0,8.3-6.7,15-15,15H536.2V218.4C536.2,210.4,542.6,204,550.6,204z"/>
	<circle class="st3" cx="670.5" cy="337.9" r="46"/>
	<circle class="st2" cx="593.8" cy="261.7" r="46"/>
	<path class="st4" d="M623.2,287.2c-1,0.2-2,0.2-3,0.1c-2.6-0.2-5-1.4-6.9-3.2c-0.3-0.4-0.8-0.5-1.3-0.4c-4.4,1-9,0.1-12.6-2.5
		c-2.8-1.9-4.7-4.9-5.3-8.2c-0.5-3.1,0.3-6.3,2.2-8.9c2.2-3,5.4-5.1,9.1-5.7c3.9-0.8,7.9-0.2,11.3,1.8c2.9,1.6,5.1,4.3,6.1,7.5
		c0.2,0.8,0.3,1.5,0.5,2.3v2.2c-0.2,2.3-1.1,4.5-2.5,6.3c-0.1,0.1-0.1,0.2-0.2,0.2c-1.3,2.9-0.1,6.3,2.7,7.7L623.2,287.2z"/>
	<path class="st4" d="M581,273.7l0.9-0.9c0.9-0.9,2-1.5,3.3-1.8c0.7-0.2,1.5-0.2,2.2-0.1c0.9,0.1,1.8,0.1,2.7,0.2h0.5v6.5h-0.3
		c-1.1-0.1-2.3-0.1-3.4-0.2c-0.2,0-0.5,0-0.6,0.2c-3,2.9-6.7,4.9-10.8,5.7c-1.6,0.3-3.2,0.5-4.8,0.6l-2.3,0.1h-0.6v-1.3
		c0-0.1,0.1-0.1,0.2-0.2c1.6-0.8,3-2,4.2-3.3c1.1-1.1,1.8-2.5,2-4.1c0.1-0.8,0.1-1.5,0-2.3c0-0.1-0.1-0.2-0.2-0.3
		c-1.5-1-2.8-2.1-4-3.4c-2.6-2.7-4.4-6.2-5.1-9.9c-0.7-3.5-0.2-7.2,1.3-10.5c2-4.2,5.3-7.6,9.4-9.8c2.9-1.6,6-2.7,9.3-3.3
		c2.7-0.5,5.4-0.6,8.1-0.4c4.9,0.3,9.6,1.9,13.7,4.5c3.7,2.3,6.6,5.7,8.4,9.7c0.8,1.9,1.2,3.9,1.3,5.9v0.4l-0.5-0.2
		c-1.8-0.8-3.8-1.3-5.8-1.4c-0.2,0-0.4-0.1-0.4-0.3c0,0,0,0,0-0.1c-0.7-2.9-2.4-5.4-4.7-7.2c-2.9-2.3-6.3-3.9-9.9-4.5
		c-2.2-0.4-4.5-0.5-6.8-0.3c-4.1,0.3-8,1.7-11.3,4c-2.2,1.6-4,3.7-5.1,6.2c-1.4,3.1-1.2,6.7,0.5,9.6c1.1,2.1,2.8,3.9,4.7,5.3
		c0.6,0.4,1.2,0.9,1.7,1.4c1.1,1.2,1.8,2.7,1.8,4.3c0,0.3,0,0.6,0.1,0.9C580.9,273.7,580.9,273.7,581,273.7z"/>
	<path class="st6" d="M671.9,312.8c0.9,0,1.7,0.1,2.6,0.3c2.3,0.3,4.5,1,6.5,2c4.9,2.3,8.8,6.2,11,11.1c0.1,0.2,0.3,0.3,0.5,0.3
		c2,0.1,3.8,0.9,5.3,2.2l0.2-0.2l1.5-1.5c0.4-0.4,1-0.6,1.5-0.4c0.6,0.2,1,0.7,1,1.3c0,0.4-0.1,0.7-0.3,1l-0.3,0.3l-7.3,7.2
		c-0.5,0.6-1.5,0.7-2.1,0.2c-0.1-0.1-0.2-0.2-0.3-0.4l-1.5-2.1c-0.5-0.6-0.4-1.6,0.2-2.1c0.2-0.2,0.5-0.3,0.8-0.3
		c0.5-0.1,1,0.2,1.3,0.6c0.2,0.3,0.4,0.5,0.6,0.8l2.4-2.4c-0.1-0.1-0.3-0.2-0.4-0.3c-2.2-1.7-5.3-1.2-7,1s-1.2,5.3,1,7s5.3,1.2,7-1
		c0.4-0.5,0.7-1.1,0.8-1.7c0.1-0.6,0.5-1.1,1.1-1.2c0.5-0.2,1,0,1.4,0.3c0.4,0.3,0.6,0.9,0.4,1.4c-0.7,3.1-3.2,5.4-6.3,5.9
		c-0.2,0-0.4,0.2-0.5,0.4c-2.2,7.4-8,13.2-15.4,15.4c-1.5,0.5-3,0.8-4.5,0.9c-0.8,0.1-1.7,0.1-2.5,0.1H652v3.3
		c0,0.8-0.6,1.5-1.4,1.5c0,0,0,0,0,0h-9.8c-0.8,0-1.5-0.6-1.5-1.4c0,0,0,0,0,0v-9.7c0-0.8,0.6-1.5,1.4-1.5c0,0,0,0,0.1,0h9.7
		c0.8,0,1.5,0.6,1.5,1.4c0,0,0,0,0,0v3.5h19.2c8.6,0,16.3-5.5,19-13.7v-0.1c-3.4-1.2-5.6-3.5-5.8-7.1c-0.3-3.4,1.6-6.6,4.8-7.9
		c-3.3-6.6-9.9-11-17.3-11.2l0.2,0.3l3,3c0.6,0.6,0.6,1.5,0,2.1c-0.5,0.5-1.4,0.6-2,0.1l-0.1-0.1l-5.8-5.8c-0.6-0.5-0.6-1.3-0.1-1.9
		c0,0,0.1-0.1,0.1-0.1v-0.1l5.8-5.8c0.5-0.6,1.4-0.8,2.1-0.2c0.6,0.5,0.8,1.4,0.2,2.1c0,0.1-0.1,0.1-0.1,0.1l-0.1,0.1l-3,3
		L671.9,312.8z M649,354h-6.8v6.8h6.8V354z"/>
	<path class="st6" d="M648.1,335.9c0-9.2,5.5-17.6,14-21.2c0.7-0.4,1.6-0.1,1.9,0.6c0,0,0,0.1,0.1,0.1c0.3,0.6,0.2,1.3-0.3,1.8
		c-0.2,0.1-0.3,0.2-0.5,0.3c-10.2,4.4-14.9,16.2-10.5,26.4c0.6,1.5,1.5,2.9,2.5,4.2c0.5,0.7,1.1,1.4,1.8,2c0.6,0.6,0.6,1.5,0,2.1
		c-0.2,0.1-0.3,0.3-0.6,0.3c-0.5,0.2-1.2,0.1-1.5-0.4c-1.8-1.7-3.2-3.8-4.3-6c-1.1-2.2-1.8-4.5-2.2-6.9
		C648.3,338.1,648.2,337,648.1,335.9z"/>
	<path class="st6" d="M698.5,358.9h-10.8c-0.8,0-1.5-0.7-1.5-1.5c0-0.6,0.4-1.2,1-1.4c0.2-0.1,0.4-0.1,0.6-0.1h10.6l-0.2-0.2
		l-2.9-2.9c-0.4-0.4-0.6-1-0.4-1.5c0.2-0.5,0.6-0.9,1.1-1c0.5-0.1,1,0.1,1.4,0.5l3.7,3.7l2,2c0.6,0.5,0.7,1.4,0.1,2c0,0,0,0,0,0.1
		c0,0.1,0,0.1-0.1,0.1l-5.7,5.7c-0.4,0.4-1,0.6-1.6,0.4c-0.8-0.2-1.2-1.1-0.9-1.8c0,0,0,0,0-0.1c0.1-0.2,0.2-0.4,0.4-0.6l3-3
		c0.1-0.1,0.2-0.1,0.3-0.2L698.5,358.9z"/>
	<path class="st5" d="M860.2,6h175.1v175c0,8.3-6.7,15-15,15l0,0H845.2V21C845.2,12.7,851.9,6,860.2,6z"/>
	<circle class="st2" cx="978" cy="64" r="46"/>
	<circle class="st3" cx="903.8" cy="137.8" r="46"/>
	<path class="st1" d="M654.2,6h175.1v175.1c0,8.3-6.7,15-15,15H639.2V21C639.2,12.7,645.9,6,654.2,6z"/>
	<circle class="st3" cx="771" cy="138.5" r="46"/>
	<circle class="st2" cx="697" cy="63.5" r="46"/>
	<path class="st4" d="M750.9,108.6h33.7c0.4,0.2,0.7,0.4,1,0.7l10.5,10.5c0.5,0.4,0.8,1.1,0.7,1.8v8.7c0,0.3,0.2,0.6,0.5,0.7
		c2,0.8,3.3,2.8,3.2,5v21.8c0,1.8-0.9,3.6-2.5,4.5c-0.4,0.2-0.8,0.4-1.2,0.6v5.6c0.1,1-0.6,1.9-1.6,2.1h-43.7c-1,0.1-1.9-0.7-2-1.7
		v-5.4c0-0.3-0.2-0.6-0.5-0.7c-2-0.8-3.2-2.8-3.2-4.9V136c0-2.1,1.1-3.9,3-4.8c0.4-0.2,0.6-0.6,0.6-1v-19.1
		C749.3,110,749.9,109,750.9,108.6z M773.2,134.2h-21.5c-1-0.2-1.9,0.4-2.1,1.4c0,0.1,0,0.1,0,0.2v21.7c-0.2,1,0.4,1.9,1.4,2.1
		c0.1,0,0.1,0,0.2,0h43.5c1,0.2,2-0.5,2.2-1.6c0,0,0,0,0,0v-21.7c0.2-1-0.5-2-1.6-2.2c-0.2,0-0.4,0-0.6,0L773.2,134.2L773.2,134.2z
		 M753.2,130.5h39.9v-7.3h-8.8c-1,0.1-1.9-0.6-2.1-1.6v-9.3h-29L753.2,130.5z M793.1,163.3h-39.9v3.7h39.9V163.3z M785.9,119.5h4.4
		l-4.5-4.5L785.9,119.5z"/>
	<path class="st4" d="M773.1,156c-2.9,0-5.3-2.4-5.4-5.3c-0.1-1,0.6-1.9,1.6-2c1-0.1,1.9,0.6,2,1.6l0,0v0.2c0,1,0.8,1.8,1.8,1.8
		c1,0,1.8-0.8,1.8-1.8c0-1-0.8-1.8-1.8-1.8l0,0H773c-3,0-5.4-2.5-5.4-5.5c0-3,2.5-5.4,5.5-5.4c2.9,0,5.3,2.3,5.4,5.2
		c0.1,1-0.6,1.9-1.6,2c-1,0.1-1.9-0.6-2-1.6v-0.2c0-1-0.8-1.8-1.8-1.8c-1,0-1.8,0.8-1.8,1.8c0,1,0.8,1.8,1.8,1.8l0,0l0,0
		c2,0,3.9,1.2,4.8,3c1.4,2.6,0.4,5.9-2.3,7.2c0,0-0.1,0-0.1,0.1C774.8,155.8,774,156,773.1,156z"/>
	<path class="st4" d="M787.7,137.8c2.9,0,5.3,2.3,5.5,5.2c0.1,1-0.6,1.9-1.6,2c-1,0.1-1.9-0.6-2-1.6v-0.2c0-1-0.8-1.8-1.8-1.8
		c-1,0-1.8,0.8-1.8,1.8c0,1,0.8,1.8,1.8,1.8l0,0l0,0c2.3,0,4.4,1.5,5.1,3.7c0.7,2,0.1,4.3-1.5,5.7c-1.5,1.5-3.8,2-5.8,1.1
		c-2-0.8-3.3-2.7-3.4-4.8c-0.1-1,0.6-1.9,1.6-2c0,0,0,0,0,0h0.1c1,0,1.9,0.8,1.9,1.8l0,0c0,1,0.8,1.8,1.8,1.8c1,0,1.8-0.8,1.8-1.8
		c0-1-0.8-1.8-1.8-1.8l0,0h-0.1c-3-0.1-5.4-2.5-5.3-5.6S784.7,137.7,787.7,137.8z"/>
	<path class="st4" d="M753.3,146.9c-0.1-1.6-0.1-3.1,0-4.7c0.6-2.9,3.4-4.8,6.3-4.3c2.5,0.5,4.3,2.6,4.4,5.2c0.1,1-0.6,1.9-1.6,2
		c-1,0.1-1.9-0.6-2-1.6v-0.2c0.1-1-0.7-1.8-1.7-1.9c-1-0.1-1.8,0.7-1.9,1.7v7.3c-0.1,1,0.6,1.9,1.6,2c1,0.1,1.9-0.6,2-1.6v-0.2
		c0-1,0.8-1.8,1.8-1.8c1,0,1.8,0.8,1.8,1.8c0,0,0,0,0,0v0.2c0,3-2.4,5.4-5.4,5.4c-3,0-5.4-2.4-5.4-5.4L753.3,146.9L753.3,146.9z"/>
	<path class="st4" d="M671.7,92.7V33.4h37.8c0.2,0,0.5,0.1,0.6,0.3l12.2,12.2c0.2,0.2,0.3,0.4,0.3,0.6v46.3L671.7,92.7z M718.3,88.5
		V50.7c0-0.2-0.1-0.4-0.2-0.5l-12.2-12.3c-0.1-0.2-0.4-0.3-0.6-0.2H676v50.9"/>
	<path class="st2" d="M676,88.5V37.6h29.3c0.2,0,0.4,0.1,0.6,0.2L718,50.1c0.1,0.1,0.2,0.3,0.2,0.5v37.8L676,88.5L676,88.5z
		 M685.2,63.1l0.2-0.3c1.7-2,3.3-4.1,5-6.2c0.2-0.2,0.2-0.5,0-0.7c0,0,0,0,0,0c-0.5-0.7-0.9-1.5-1.3-2.3l-0.4-0.6l-8.2,10l8.2,10
		c0.6-1,1.2-2,1.8-2.9c0.1-0.2,0.1-0.3,0-0.5c-1-1.2-2-2.5-3-3.7L685.2,63.1z M705.5,73.1l8.2-10l-8.2-10l-1.8,3
		c-0.1,0.2-0.1,0.3,0,0.5l2.9,3.5l2.4,3l-5.5,6.8L705.5,73.1z M698,53.3l-5.7,19.5h3.6l5.7-19.5L698,53.3z"/>
	<path class="st4" d="M685.2,63.1l2.3,2.9c1,1.2,2,2.5,3,3.7c0.1,0.2,0.1,0.3,0,0.5c-0.6,1-1.2,1.9-1.8,2.9l-8.2-10l8.2-10l0.4,0.6
		c0.4,0.8,0.9,1.5,1.3,2.3c0.2,0.2,0.2,0.5,0,0.7c0,0,0,0,0,0c-1.7,2-3.3,4.1-5,6.2L685.2,63.1z"/>
	<path class="st4" d="M705.5,73.1l-1.9-3.2l5.5-6.8l-2.4-3l-2.9-3.5c-0.1-0.1-0.2-0.2-0.1-0.4c0-0.1,0.1-0.1,0.1-0.1l1.8-3l8.2,10
		L705.5,73.1z"/>
	<path class="st4" d="M698,53.3h3.6l-5.7,19.5h-3.6L698,53.3z"/>
	<path class="st5" d="M448.2,6.1h175.1v175.1c0,8.3-6.7,15-15,15l0,0H433.2V21.1C433.2,12.8,439.9,6.1,448.2,6.1L448.2,6.1z"/>
	<circle class="st3" cx="566" cy="63.5" r="46"/>
	<circle class="st2" cx="492.3" cy="137.8" r="46"/>
	<path class="st4" d="M520.7,137.5v13.2c0.1,2-1,3.9-2.8,4.8c-7.6,4.4-15.2,8.7-22.9,13.1c-1.6,1.1-3.8,1.1-5.4,0
		c-2.5-1.5-5-2.9-7.5-4.4c-0.1-0.1-0.2-0.1-0.3-0.2l-0.4-0.4c0.1-0.2,0.3-0.3,0.5-0.4c0.9-0.4,1.8-0.7,2.7-1.1
		c1.4-0.7,0.9-0.7,2.3,0.1c1.6,1,3.3,1.9,4.9,2.9c0.3,0.3,0.9,0.3,1.2,0l22.9-13.2c0.4-0.2,0.7-0.6,0.7-1.1v-26.3
		c0-0.5-0.2-1-0.7-1.2l-22.8-13.2c-0.4-0.3-0.9-0.3-1.3,0c-7.6,4.4-15.2,8.8-22.8,13.1c-0.5,0.2-0.8,0.7-0.7,1.2v26.3
		c0,0.5,0.2,0.9,0.6,1.1c2,1.1,4,2.3,6,3.4c0.8,0.5,1.7,0.8,2.7,0.9c1.6-0.1,2.9-1.3,3.1-2.9v-26.5c0-0.8,0.2-1,1-1h2.5
		c0.6,0,0.8,0.3,0.8,0.8v26.6c0,1.5-0.3,3.1-1.1,4.4c-1,1.6-2.6,2.6-4.5,2.7c-2.4,0.3-4.8-0.3-6.8-1.5c-1.9-1.1-3.9-2.1-5.8-3.3
		c-1.7-0.9-2.7-2.7-2.7-4.6v-26.7c-0.1-1.9,0.9-3.7,2.6-4.6c7.7-4.4,15.4-8.9,23.1-13.3c1.6-1,3.6-1,5.2,0c7.7,4.5,15.4,8.9,23,13.3
		c1.7,0.9,2.7,2.7,2.6,4.6C520.6,128.6,520.7,133.1,520.7,137.5z"/>
	<path class="st4" d="M498.9,150.9c-1.9,0-3.8-0.3-5.6-0.7c-2.4-0.6-4.3-2.2-5.3-4.4c-0.5-1-0.8-2.2-0.9-3.3c0-0.6,0.2-0.9,0.8-0.9
		h2.7c0.5,0,0.7,0.1,0.8,0.7c0.1,1,0.6,2,1.2,2.8c0.8,0.9,1.9,1.4,3.1,1.5c2.4,0.4,4.9,0.4,7.3-0.1c0.7-0.2,1.4-0.4,2-0.8
		c1-0.6,1.5-1.7,1.4-2.8c-0.1-1-0.8-1.8-1.8-2c-0.8-0.3-1.7-0.5-2.6-0.6c-2-0.3-4.1-0.5-6.1-0.8c-1.7-0.2-3.3-0.7-4.8-1.4
		c-1.7-0.7-2.9-2.3-3.1-4.1c-0.3-1.7,0-3.5,0.9-5c0.9-1.3,2.1-2.3,3.6-2.8c1.5-0.6,3.1-0.9,4.7-1c2.6-0.2,5.3,0.1,7.8,0.9
		c2.9,0.9,4.9,3.6,5.1,6.6c0,0.2,0.1,0.4,0.1,0.7s-0.2,0.7-0.6,0.7h-3.1c-0.3,0-0.6-0.2-0.6-0.5c-0.1-0.5-0.3-1-0.5-1.4
		c-0.5-1.2-1.5-2.1-2.8-2.4c-2.6-0.6-5.2-0.7-7.8-0.1c-1.2,0.3-2.1,1.3-2.3,2.5c-0.2,1,0.5,2.1,1.5,2.3h0.1c1.4,0.4,2.8,0.6,4.2,0.9
		c2.6,0.3,5.1,0.8,7.6,1.4c0.7,0.2,1.4,0.5,2.1,0.8c1.5,0.6,2.6,2,2.8,3.6c0.5,2,0.2,4.1-0.9,5.8c-0.9,1.4-2.3,2.4-3.9,3
		c-2.2,0.8-4.5,1.2-6.8,1.1L498.9,150.9z"/>
	<path class="st4" d="M558.2,87v5.7c0.1,0.9-0.6,1.7-1.5,1.8c-0.3,0-0.5,0-0.8-0.1c-4-1.3-7.6-3.4-10.7-6.2
		c-5.5-4.9-9.2-11.5-10.3-18.8c-1.1-6.5-0.1-13.1,2.9-19c4.7-9.4,13.8-15.9,24.3-17.2c10.5-1.3,20.9,2.6,27.8,10.6
		c3.3,3.7,5.6,8.2,6.8,13c2.5,10.8,0.1,20.3-7.1,28.7c-3.5,4.1-8.1,7.2-13.2,8.9c-0.8,0.5-1.8,0.2-2.3-0.6c0,0,0,0,0,0
		c-0.2-0.3-0.3-0.7-0.2-1.1v-8.3c0.1-1.7-0.3-3.4-1.2-4.8c-0.3-0.4-0.6-0.7-0.9-1.1c0.7-0.1,1.5-0.2,2.2-0.4c2.9-0.6,5.6-1.7,8-3.4
		c1.5-1.1,2.6-2.7,3.1-4.5c1-3.1,1.3-6.4,0.9-9.6c-0.3-2.1-1.3-4.1-2.7-5.7c-0.2-0.2-0.3-0.6-0.2-0.9c0.8-2.5,0.7-5.2-0.3-7.6
		l-0.1-0.2c-2.4-0.2-4.8,0.5-6.7,1.9c-0.6,0.4-1.2,0.8-1.7,1.1c-0.2,0.1-0.4,0.1-0.6,0.1c-3.8-1-7.8-1.2-11.7-0.7
		c-1.1,0.2-2.2,0.4-3.3,0.7c-0.3,0.1-0.6,0-0.8-0.1c-1.4-1-2.9-1.9-4.5-2.5c-1.2-0.3-2.5-0.5-3.8-0.5c-0.9,2-1.1,4.2-0.8,6.3
		c0.1,0.6,0.3,1.3,0.4,1.9c0,0.2-0.1,0.4-0.2,0.5c-1.4,1.6-2.3,3.5-2.7,5.6c-0.3,1.7-0.3,3.5-0.1,5.2c0.1,1.5,0.4,2.9,0.9,4.3
		c0.8,2.5,2.5,4.5,4.8,5.7c2.2,1.2,4.6,2.1,7.1,2.6c0.4,0.1,0.9,0.1,1.4,0.2c-0.7,0.7-1.3,1.6-1.6,2.6c-0.1,0.4-0.2,0.7-0.2,1.1
		c0,0.3-0.2,0.6-0.5,0.7c-1.4,0.4-2.8,0.6-4.3,0.6c-1.5-0.1-2.9-1-3.7-2.3c-0.7-0.8-1.3-1.7-1.9-2.6c-0.9-1.1-2.1-1.7-3.5-1.8
		c-0.5,0-1,0.1-1.5,0.3c-0.3,0.1-0.3,0.3-0.1,0.5c0.3,0.3,0.6,0.6,1,0.9c1,0.6,1.9,1.4,2.5,2.4c0.3,0.4,0.5,0.8,0.7,1.3
		c0.7,1.5,1.6,2.8,2.8,3.9c0.8,0.8,1.9,1.3,3.1,1.3C554.9,87.5,556.6,87.4,558.2,87L558.2,87z"/>
	<text transform="matrix(6.123234e-17 -1 1 6.123234e-17 1591.92 256.9805)" class="st7 st8 st9">©</text>
	<text transform="matrix(6.123234e-17 -1 1 6.123234e-17 1591.92 247.2002)" class="st7 st8 st9">A</text>
	<text transform="matrix(6.123234e-17 -1 1 6.123234e-17 1591.92 240.5)" class="st7 st8 st9">r</text>
	<text transform="matrix(6.123234e-17 -1 1 6.123234e-17 1591.92 236.6396)" class="st7 st8 st9">t</text>
	<text transform="matrix(6.123234e-17 -1 1 6.123234e-17 1591.92 233.0703)" class="st7 st8 st9">emis</text>
	<text transform="matrix(6.123234e-17 -1 1 6.123234e-17 1591.92 209.1201)" class="st7 st8 st9">G</text>
	<text transform="matrix(6.123234e-17 -1 1 6.123234e-17 1591.92 201.9297)" class="st7 st8 st9">ause 2019</text>
	<path class="st1" d="M757.7,204.9h175.1V381c0,8.3-6.7,15-15,15H742.7V219.9C742.7,211.6,749.4,204.9,757.7,204.9L757.7,204.9z"/>
	<ellipse class="st3" cx="800.8" cy="337.9" rx="46" ry="46.2"/>
	<ellipse class="st2" cx="874.8" cy="262.5" rx="46" ry="46.2"/>
	<path class="st4" d="M843.3,278.9c0.1-0.7,0.3-1.4,0.6-2c0.6-1.5,1.8-2.7,3.3-3.2c0.2,0,0.3-0.2,0.3-0.4v-20.9
		c0-0.2-0.1-0.3-0.3-0.4l-4-2l0.4-0.2l26.5-13.3l6.4-3.2c0.2-0.1,0.3-0.1,0.5,0l33,16.6l0.3,0.2l-15.2,7.6c0.1,0.1,0.1,0.3,0.2,0.4
		c1.6,3,2.5,6.4,2.5,9.8v3.2c0,0.3-0.1,0.3-0.3,0.4l-15.8,8l-4.6,2.3c-0.2,0.1-0.3,0.1-0.5,0l-20.4-10.3c-0.2-0.1-0.3-0.1-0.3-0.4
		c0-2,0.1-4.1,0.3-6.1c0.3-2.4,1-4.8,2.2-6.9l0.2-0.3v-0.1l-6.8-3.4v18.9c0,0.2,0.1,0.5,0.3,0.5c2.1,0.9,3.5,2.8,3.8,5
		c0,0.4,0.1,0.8,0.1,1.1v10.1h-12.5v-11L843.3,278.9z M852.7,250.1l0.2,0.1l23.6,11.9c0.2,0.1,0.4,0.1,0.6,0l23.5-11.8l0.3-0.2
		l-0.3-0.2L877.1,238c-0.2-0.1-0.4-0.1-0.6,0L853,249.9L852.7,250.1z M862.3,259.6l-0.1,0.2c-1.5,2.7-2.2,5.7-2.1,8.7
		c0,0.2,0.1,0.3,0.2,0.3l16.3,8.2c0.1,0.1,0.3,0.1,0.4,0c0.7-0.4,1.5-0.8,2.3-1.1l14-7c0.2-0.1,0.3-0.3,0.3-0.5c0-0.5,0-0.9-0.1-1.4
		c-0.1-2-0.6-3.9-1.3-5.7c-0.3-0.6-0.5-1.1-0.8-1.7l-0.4,0.2l-13.9,7c-0.2,0.1-0.4,0.1-0.6,0l-10.9-5.5L862.3,259.6z M851.7,285.8
		v-6.3c0-1.1-0.9-2.1-2-2.1c0,0-0.1,0-0.1,0h-0.5c-1,0.2-1.7,1.1-1.6,2.1v6.2L851.7,285.8z"/>
	<path class="st4" d="M802,366.6h-2.6c-8.6-0.5-16.6-4.9-21.6-11.9c-9.3-12.7-6.6-30.6,6.1-39.9c8.9-6.5,20.8-7.3,30.6-2
		c5.6,3,10,7.8,12.5,13.6c1.3,2.9,2.1,6,2.3,9.2c0,0.4,0.1,0.8,0.1,1.2v2.7c-0.1,0.7-0.1,1.5-0.2,2.2c-1.3,10.2-8,18.8-17.4,22.8
		c-2.7,1.1-5.6,1.8-8.5,2L802,366.6z M811,345.1c0.6-1.9,0.6-12.3,0-14.3h-20.4c-0.6,4.7-0.6,9.6,0,14.3H811z M810.4,327.2V327
		c-0.6-3-1.6-5.8-3-8.5c-0.8-1.7-1.9-3.1-3.3-4.3c-0.9-0.8-2-1.2-3.1-1.3c-1.3,0-2.5,0.4-3.4,1.3c-1.2,1-2.2,2.2-2.9,3.6
		c-1.4,2.6-2.5,5.5-3.2,8.4c-0.1,0.4-0.2,0.7-0.2,1.1L810.4,327.2z M810.4,348.7h-19.2v0.2c0.6,3,1.6,5.8,3,8.5
		c0.8,1.6,1.9,3.1,3.3,4.3c1.9,1.7,4.7,1.7,6.6,0c1.2-1,2.2-2.2,2.9-3.6c1.3-2.4,2.3-4.9,2.9-7.5C810.1,350,810.3,349.3,810.4,348.7
		z M776.9,330.8c-1.4,4.7-1.4,9.6,0,14.3H787c-0.6-4.7-0.6-9.6,0-14.3H776.9z M814.6,345.1h10.1c1.4-4.7,1.4-9.6,0-14.3h-10.1
		C815.2,335.5,815.2,340.4,814.6,345.1L814.6,345.1z M787.6,327.2c0.8-4.6,2.5-9,5-12.9c-6.3,2.2-11.4,6.9-14.3,12.9H787.6z
		 M823.4,327.2c-2.9-6-8-10.6-14.3-12.9c2.5,3.9,4.2,8.3,5,12.9H823.4z M792.6,361.6c-1.3-1.9-2.4-4-3.2-6.2
		c-0.8-2.2-1.4-4.4-1.8-6.7h-9.3C781.2,354.7,786.3,359.4,792.6,361.6L792.6,361.6z M809.1,361.6c6.3-2.2,11.4-6.9,14.3-12.9H814
		C813.3,353.3,811.6,357.7,809.1,361.6L809.1,361.6z"/>
	<path class="st1" d="M1169.4,204h175.1v176c0,8.3-6.7,15-15,15h-175.1V219C1154.4,210.7,1161.1,204,1169.4,204L1169.4,204z"/>
	<ellipse class="st3" cx="1213.3" cy="336.4" rx="46" ry="46.2"/>
	<ellipse class="st2" cx="1287" cy="262.1" rx="46" ry="46.2"/>
	<path class="st10" d="M996,297v-6.4c0-0.9-0.1-1.9-0.1-2.8c-0.9,0-1.8-0.1-2.8-0.1h-7.4v-12.3c0-0.5-0.1-0.7-0.6-0.8
		c-2.3-0.5-4.7-1.1-7.1-1.6c0.1-0.2,0.2-0.5,0.3-0.7c2.1-3.8,4.2-7.5,6.3-11.3c0.2-0.3,0.3-0.7,0.2-1.1c-0.3-2.5-0.2-5.1,0.3-7.6
		c0.1-0.5,0.3-0.6,0.7-0.6h1.8c0.2-0.8,0-1.6-0.7-2.1c-3.9-3.2-4.5-9-1.3-12.9c2.3-2.9,6.2-4.1,9.7-3c3.6,1.1,6.2,4.2,6.6,8
		c0,0.1,0,0.2,0.1,0.3l2.3-8.1l10.2,4.4c-0.7,0.4-1.3,0.6-1.8,0.9c-1.3,0.6-1.3,0.6-0.7,2s1.2,2.6,1.8,3.9c0.1,0.3,0.4,0.5,0.7,0.5
		h1.7c1.1,0,2-0.9,2-2v-4.2h-2v-6.1h6v6.1h-0.9c-1.3,0-1.1-0.1-1.1,1.1v2.7c0.2,2.2-1.5,4.2-3.7,4.4h-1.5c0.1,0.4,0.3,0.8,0.5,1.2
		c0.3,0.8,0.7,1.6,1.1,2.3c0.1,0.4,0.5,0.6,0.9,0.6h3.6c0.4,0.1,0.8-0.2,0.9-0.6c1.8-4.3,3.7-8.6,5.5-12.9c0.1-0.3,0.2-0.5,0.4-0.7
		c1.8-1.4,3.7-2.8,5.7-4.3v6.9c0,0.3-0.1,0.7-0.2,1c-1.3,3.3-2.7,6.5-4.1,9.8c-0.1,0.2-0.2,0.5-0.3,0.7h1.4c0.4,0,0.6,0.1,0.6,0.5
		c0.5,3.1,0.6,6.3,0.4,9.5c-0.2,6.1-2.5,12-6.6,16.6c-1.3,1.4-2.7,2.7-4.2,3.9c-0.2,0.2-0.4,0.4-0.4,0.7v13.9L996,297z
		 M1018.4,294.9v-12.6c0-0.5,0.2-0.9,0.6-1.1c5.1-3.5,8.6-8.8,10-14.8c0.9-3.9,0.7-7.9,0.5-11.9c0-0.5-0.2-0.7-0.7-0.7h-41.1
		c-0.5,0-0.7,0.2-0.8,0.7c-0.2,2-0.2,3.9,0.1,5.9c0,0.3,0,0.7-0.2,1l-4.5,8.1c-0.4,0.7-0.7,1.4-1.1,2.1l0.6,0.2
		c1.8,0.4,3.6,0.8,5.3,1.2c0.5,0.1,0.7,0.3,0.7,0.8v11.9H998v9.2L1018.4,294.9z M991.8,251.9c0-0.1,0.1-0.1,0.1-0.2V246
		c0-0.2-0.3-0.4-0.4-0.6c-1.5-0.7-2.2-2.5-1.5-4c0.6-1.2,1.9-1.9,3.2-1.7c1.7,0.1,2.9,1.6,2.8,3.3c-0.1,1-0.6,1.9-1.5,2.4
		c-0.2,0.1-0.5,0.3-0.5,0.5v6h2.1v-1.7c-0.1-0.6,0.2-1.2,0.8-1.4c3.3-2.1,4.4-6.5,2.3-9.8c-1.8-2.9-5.3-4.1-8.5-2.9
		c-3.7,1.4-5.6,5.5-4.2,9.2c0.6,1.5,1.6,2.8,3,3.6c0.4,0.2,0.6,0.6,0.6,1v2L991.8,251.9z M1024.1,251.9h2.3c0.4,0.1,0.8-0.2,0.9-0.6
		c1.3-3.3,2.7-6.6,4.1-9.8c0-0.1,0.1-0.2,0.1-0.4l-2.2-1.1L1024.1,251.9z M1005.7,240.3c0.8,1.7,1.5,3.3,2.3,5
		c0.1,0.2,0.2,0.4,0.4,0.5h3.6l-3-6.6l0.9-0.5l-4-1.7l-1.1,3.8L1005.7,240.3z M1002.1,251.8v-1.9c0-2,1.4-3.6,3.3-4
		c0.1,0,0.3-0.1,0.4-0.1l-1.2-2.7c-0.8,0.4-1.6,0.7-2.3,1.1c-0.3,0.2-0.5,0.5-0.6,0.8c-0.5,1.9-1.5,3.5-3,4.7
		c-0.7,0.5-1,1.3-0.8,2.1L1002.1,251.8z M1009.1,247.8c0.6,1.4,1.2,2.6,1.8,3.9c0.1,0.1,0.2,0.2,0.3,0.2h3.7
		c-0.6-1.4-1.2-2.6-1.8-3.8c-0.1-0.1-0.2-0.2-0.3-0.2C1011.5,247.8,1010.4,247.8,1009.1,247.8L1009.1,247.8z M1008.7,251.8
		c-0.6-1.3-1.1-2.5-1.7-3.8c-0.1-0.2-0.2-0.3-0.4-0.3c-1-0.2-2,0.5-2.3,1.5c-0.1,0.9-0.1,1.7,0,2.6H1008.7z M1018.5,237.5h2v-2h-2
		V237.5z M992.9,241.6c-0.5,0-1,0.4-1,0.9c0,0,0,0.1,0,0.1v0.1c0,0.6,0.4,1,1,1s1-0.4,1-1C993.9,242.1,993.5,241.6,992.9,241.6z
		 M1031.7,237.6l-1.1,0.8l1.1,0.5V237.6z"/>
	<path class="st10" d="M998.1,257.1h2c0.1,1.7-0.8,3.4-2.3,4.3c-1.7,1.1-3.9,1.1-5.6,0c-1.5-0.9-2.4-2.6-2.3-4.3h2
		c0,1,0.5,2,1.3,2.5c0.7,0.4,1.4,0.6,2.2,0.5C997,259.9,997.8,259,998.1,257.1z"/>
	<path class="st4" d="M1233.6,303.8v16.3h-4.6l0.7,2c1.3,4.1,2.7,8.1,4,12.1c0.1,0.2,0.1,0.5-0.1,0.6l-14.1,28.2
		c-0.1,0.2-0.2,0.5-0.2,0.8c-0.4,2.6-2.3,4.6-4.9,5.1c-3.3,0.6-6.5-1.6-7.1-4.9c0-0.1,0-0.3-0.1-0.4c0-0.2-0.1-0.3-0.2-0.5
		c-4.7-9.4-9.4-18.9-14.1-28.3c-0.1-0.2-0.2-0.5-0.1-0.8c1.5-4.6,3-9.1,4.6-13.7l0.1-0.3h-4.6v-16.3h4.1V316h32.5v-12.2H1233.6z
		 M1211.2,362.3L1211.2,362.3c0.1-0.1,0.1-0.1,0.1-0.2v-25.9c0-0.2-0.1-0.4-0.2-0.4c-1.9-1.2-2.4-3.7-1.2-5.6
		c1.2-1.9,3.7-2.4,5.6-1.2c1.4,0.9,2.1,2.6,1.8,4.2c-0.2,1-0.8,1.9-1.7,2.5c-0.2,0.1-0.3,0.3-0.3,0.5v26.2c0.1-0.1,0.2-0.2,0.2-0.3
		c4.6-9.2,9.1-18.3,13.7-27.5c0.1-0.2,0.1-0.4,0-0.6l-4.5-13.5c0-0.2-0.2-0.4-0.4-0.3h-22.1c-0.2,0-0.4,0.1-0.4,0.3l0,0l-4.5,13.5
		c-0.1,0.2-0.1,0.5,0,0.7c4.1,8.3,8.3,16.6,12.4,24.9L1211.2,362.3z"/>
	<path class="st4" d="M1256.5,282v-36.6h32.5l-0.2,0.2l-3.7,3.7c-0.1,0.1-0.3,0.2-0.5,0.2h-24v28.4h52.8v-24c0-0.2,0.1-0.4,0.2-0.6
		c1.3-1.2,2.5-2.5,3.8-3.8v32.4H1289v4.1h8.1v4.1h-20.3v-4h8.1V282H1256.5z"/>
	<path class="st4" d="M1264.7,273.9v-4.1h8.1c1.9,0,3.6-1.3,4-3.2c0.1-0.3,0.1-0.6,0.1-0.9c0-3.3,2-6.2,5-7.5c0.7-0.2,1.3-0.4,2-0.6
		c0.2,0,0.3-0.1,0.5-0.3l10-10l12.3-12.3c2.5-2.5,6.5-2.5,9,0s2.5,6.5,0,9l0,0l0,0l-22.2,22.1c-0.2,0.2-0.3,0.4-0.3,0.7
		c-0.4,2.4-1.8,4.5-3.9,5.7c-1.3,0.8-2.9,1.2-4.4,1.1L1264.7,273.9z M1298.7,255.3l0.1-0.1l13.8-13.8l0.2-0.2c0.8-1,0.6-2.4-0.4-3.2
		c-0.9-0.7-2.2-0.6-3,0.2l0,0l-13.8,13.7l-0.1,0.1L1298.7,255.3z M1279.9,269.8h4.9c0.2,0,0.5,0,0.7-0.1c2.2-0.3,3.7-2.4,3.4-4.6
		s-2.4-3.7-4.6-3.4c-1.9,0.3-3.4,1.9-3.5,3.9c0,0.7-0.1,1.4-0.3,2C1280.4,268.3,1280.2,269,1279.9,269.8z M1292.8,261.1l2.9-2.9
		c-0.8-1.2-1.9-2.3-3.1-3.1l-3,2.9C1290.9,258.8,1292,259.9,1292.8,261.1z"/>
	<path class="st11" d="M930.6,156.9H905c-1,0-1.8-0.8-1.8-1.7v-34.7c0-1,0.8-1.8,1.8-1.7h25.6c1,0,1.8,0.8,1.8,1.7v34.7
		C932.4,156.1,931.6,156.9,930.6,156.9z"/>
	<path class="st12" d="M912.4,129.1H905c-1,0.1-1.8-0.6-1.9-1.6c-0.1-1,0.6-1.8,1.6-1.9c0.1,0,0.2,0,0.3,0h7.3
		c1-0.1,1.8,0.6,1.9,1.6c0.1,1-0.6,1.8-1.6,1.9C912.5,129.1,912.4,129.1,912.4,129.1L912.4,129.1z"/>
	<path class="st12" d="M912.4,136.1H905c-1,0.1-1.8-0.6-1.9-1.6c-0.1-1,0.6-1.8,1.6-1.9c0.1,0,0.2,0,0.3,0h7.3
		c1-0.1,1.8,0.6,1.9,1.6c0.1,1-0.6,1.8-1.6,1.9C912.5,136.1,912.4,136.1,912.4,136.1L912.4,136.1z"/>
	<path class="st12" d="M912.4,143H905c-1,0.1-1.8-0.6-1.9-1.6c-0.1-1,0.6-1.8,1.6-1.9c0.1,0,0.2,0,0.3,0h7.3c1-0.1,1.8,0.6,1.9,1.6
		c0.1,1-0.6,1.8-1.6,1.9C912.5,143,912.4,143,912.4,143L912.4,143z"/>
	<path class="st12" d="M912.4,150H905c-1,0.1-1.8-0.6-1.9-1.6c-0.1-1,0.6-1.8,1.6-1.9c0.1,0,0.2,0,0.3,0h7.3c1-0.1,1.8,0.6,1.9,1.6
		c0.1,1-0.6,1.8-1.6,1.9C912.5,150,912.4,150,912.4,150L912.4,150z"/>
	<path class="st12" d="M923.3,129.1h-3.7c-1,0.1-1.8-0.6-1.9-1.6c-0.1-1,0.6-1.8,1.6-1.9c0.1,0,0.2,0,0.3,0h3.7
		c1-0.1,1.8,0.6,1.9,1.6c0.1,1-0.6,1.8-1.6,1.9C923.5,129.1,923.4,129.1,923.3,129.1z"/>
	<path class="st12" d="M923.3,136.1h-3.7c-1,0.1-1.8-0.6-1.9-1.6c-0.1-1,0.6-1.8,1.6-1.9c0.1,0,0.2,0,0.3,0h3.7
		c1-0.1,1.8,0.6,1.9,1.6c0.1,1-0.6,1.8-1.6,1.9C923.5,136.1,923.4,136.1,923.3,136.1z"/>
	<path class="st12" d="M923.3,143h-3.7c-1,0.1-1.8-0.6-1.9-1.6c-0.1-1,0.6-1.8,1.6-1.9c0.1,0,0.2,0,0.3,0h3.7c1-0.1,1.8,0.6,1.9,1.6
		c0.1,1-0.6,1.8-1.6,1.9C923.5,143,923.4,143,923.3,143z"/>
	<path class="st12" d="M923.3,150h-3.7c-1,0.1-1.8-0.6-1.9-1.6c-0.1-1,0.6-1.8,1.6-1.9c0.1,0,0.2,0,0.3,0h3.7c1-0.1,1.8,0.6,1.9,1.6
		c0.1,1-0.6,1.8-1.6,1.9C923.5,150,923.4,150,923.3,150z"/>
	<path class="st12" d="M906.2,112.2c-0.4-0.3-1-0.5-1.5-0.4l-29.3,5.2c-0.8,0.1-1.5,0.8-1.5,1.7v38.2c0,0.9,0.7,1.6,1.5,1.7
		l29.3,5.2c0.1,0,0.2,0,0.3,0c0.4,0,0.8-0.1,1.2-0.4c0.4-0.3,0.7-0.8,0.7-1.3v-48.6C906.9,113,906.6,112.5,906.2,112.2z"/>
	<path class="st13" d="M899.1,143.6l-5.8-6.3l5.8-7.1c0.6-0.7,0.5-1.8-0.2-2.4c0,0-0.1-0.1-0.1-0.1c-0.8-0.6-1.9-0.5-2.6,0.3
		l-5.4,6.6l-4.6-4.9c-0.7-0.7-1.8-0.8-2.6-0.2c-0.7,0.6-0.8,1.6-0.2,2.4c0,0,0,0.1,0.1,0.1l5,5.5l-5.1,6.2c-0.6,0.7-0.5,1.8,0.2,2.4
		c0,0,0.1,0.1,0.1,0.1c0.3,0.2,0.7,0.4,1.1,0.4c0.6,0,1.1-0.2,1.4-0.7l4.7-5.7l5.3,5.8c0.4,0.4,0.8,0.6,1.4,0.6
		c0.4,0,0.9-0.1,1.2-0.4c0.7-0.5,0.9-1.6,0.3-2.3C899.2,143.7,899.1,143.7,899.1,143.6z"/>
</g>
<path class="st11" d="M1005.9,43.5h-26.7c-1,0-1.8,0.8-1.8,1.8c0,0,0,0,0,0v35.7c0,1,0.8,1.8,1.8,1.8l0,0h26.7c1,0,1.8-0.8,1.8-1.8
	c0,0,0,0,0,0V45.3C1007.7,44.3,1006.9,43.5,1005.9,43.5C1005.9,43.5,1005.9,43.5,1005.9,43.5z"/>
<path class="st12" d="M997,75.6h-17.8c-1,0-1.8-0.8-1.8-1.8c0-1,0.8-1.8,1.8-1.8c0,0,0,0,0,0H997c1,0,1.8,0.8,1.8,1.8
	C998.8,74.8,998,75.6,997,75.6z"/>
<path class="st12" d="M988.1,50.6c-4.9,0-8.9,4-8.9,8.9s4,8.9,8.9,8.9s8.9-4,8.9-8.9c0,0,0,0,0,0h-8.9V50.6z"/>
<path class="st12" d="M991.7,47v9h10.6C1002.4,51.1,996.7,47.1,991.7,47C991.8,47,991.7,47,991.7,47z"/>
<path class="st12" d="M980.4,36.8c-0.4-0.3-0.9-0.5-1.5-0.4l-26.8,5.3c-0.8,0.2-1.5,0.9-1.5,1.8v39.2c0,0.9,0.6,1.6,1.5,1.8
	l28.5,5.3c0.1,0,0.2,0,0.3,0c1,0,1.8-0.8,1.8-1.8c0,0,0,0,0,0L981,38.1C981,37.6,980.8,37.1,980.4,36.8z"/>
<path class="st13" d="M961.4,75.6c-1,0-1.8-0.8-1.8-1.8c0,0,0,0,0,0V56c0-1,0.8-1.8,1.8-1.8l0,0h5.3c3.9,0,7.1,3.2,7.1,7.1
	s-3.2,7.1-7.1,7.1h-3.6v5.3C963.2,74.8,962.4,75.6,961.4,75.6z M963.2,64.9h3.6c2,0,3.6-1.6,3.6-3.6c0-2-1.6-3.6-3.6-3.6h-3.6V64.9z
	"/>
</svg>
