<svg xmlns="http://www.w3.org/2000/svg" viewBox="0 0 511.33 162.87"><defs><style>.cls-1{opacity:0.5;}.cls-2{fill:#e9e9d7;}.cls-3{fill:none;stroke:#c37a66;stroke-miterlimit:10;stroke-width:1.42px;}.cls-4{fill:#c47a67;}.cls-5{fill:#3ac0c3;}.cls-6{fill:#6f3a26;}</style></defs><title>Artigraphy-LOGO</title><g id="Layer_2" data-name="Layer 2"><g id="Layer_1-2" data-name="Layer 1"><g id="Layer_2-2" data-name="Layer 2"><g id="Layer_2-2-2" data-name="Layer 2-2"><g class="cls-1"><path class="cls-2" d="M496.33,162.87H0V26.54a15,15,0,0,1,15-15H511.33V147.87a15,15,0,0,1-15,15Z"/></g></g><path class="cls-3" d="M255.65,147.8"/><path class="cls-4" d="M255.65,93.16"/><path class="cls-3" d="M255.65,149.15"/><path class="cls-3" d="M255.65,149.15"/><path class="cls-4" d="M42.63,101.93a9.31,9.31,0,1,1-9.31-9.31A9.32,9.32,0,0,1,42.63,101.93Zm36.58,9.41H62.6L40.42,67.41,48.72,51Z"/><path class="cls-5" d="M89.76,63.24h14.79v48H89.76Zm27.7,15a7.49,7.49,0,1,1,7.49-7.49A7.5,7.5,0,0,1,117.46,78.26Z"/><path class="cls-4" d="M145.11,68.18v35.19h10.08l-7.06,5.57a11,11,0,0,1-17.81-8.64V62.66L145.11,51V63.24h10.08v4.94Z"/><path class="cls-5" d="M162.67,58.44a7.44,7.44,0,1,1,7.44,7.44A7.42,7.42,0,0,1,162.67,58.44Zm25,44.79-7.15,5.62a10.92,10.92,0,0,1-6.82,2.4,11,11,0,0,1-11-11V71.4h14.83v31.83Z"/><path class="cls-5" d="M192.43,83.11c0-12,10.71-19.83,20.16-19.83-3.74,1.68-6.34,9.94-6.34,19.83s3.12,18.19,6.34,19.83C203.14,102.94,192.43,95.11,192.43,83.11Zm42.05,35.19a7.2,7.2,0,0,1,.19,1.78v.77a.18.18,0,0,0,0,.14,3.74,3.74,0,0,1-.1.67v0a8.69,8.69,0,0,1-1.78,3.89l-4.51,5.76v-8.16H201.5a9,9,0,0,1-7-14.5l4.51-5.76v8.21h26.74a9,9,0,0,1,7.87,4.66,9.75,9.75,0,0,1,.67,1.63A5.6,5.6,0,0,1,234.48,118.3Zm-11.62,13.06a8.75,8.75,0,0,1,.58,3.12,8.91,8.91,0,0,1-8.93,8.93H203a8.91,8.91,0,0,1-8.93-8.93A9,9,0,0,1,196,129l4.56-5.76v8.16h22.32Zm11.81-48.24c0,12-10.66,19.83-20.16,19.83,3.22-1.63,6.38-9.89,6.38-19.83S218.31,65,214.51,63.28C224,63.28,234.68,71.11,234.68,83.11Zm3.55-32L223.59,63.33V51.14Z"/><path class="cls-4" d="M244.8,63.24h14.79v48H244.8Zm27.7,15A7.49,7.49,0,1,1,280,70.77,7.5,7.5,0,0,1,272.5,78.26Z"/><path class="cls-5" d="M297.5,97.66c0,5.23,3.6,9.79,8.83,12a19.19,19.19,0,0,1-7.54,1.49c-9,0-16.32-6-16.32-13.54s7.3-13.54,16.32-13.54a19.19,19.19,0,0,1,7.54,1.49C301.11,87.91,297.5,92.42,297.5,97.66ZM287.28,70.72a7.49,7.49,0,1,1,7.49,7.49A7.46,7.46,0,0,1,287.28,70.72Zm46.08,32.45-7.06,5.57a11.09,11.09,0,0,1-6.77,2.3,10.94,10.94,0,0,1-10.95-10.95V63.91a10.24,10.24,0,0,1,3.79-.72,11,11,0,0,1,10.95,11v29Z"/><path class="cls-4" d="M354.19,74.23v49.16H339.41V64a11.26,11.26,0,0,1,3.79-.67A11,11,0,0,1,354.19,74.23Zm31.78,21a23.78,23.78,0,0,1-30,14.64,23.85,23.85,0,0,0,.19-45l-.43-.14A23.87,23.87,0,0,1,386,95.21Z"/><path class="cls-5" d="M409.39,111.19H394.61V51.09h14.79Zm16.9-47.81a10.94,10.94,0,0,1,10.95,10.95v36.87H422.5V71.54H412.08l7.39-5.81A11.07,11.07,0,0,1,426.29,63.38Z"/><path class="cls-4" d="M460,63.38,475.92,95l-8.26,16.32L443.42,63.38Zm3.84,54a6.1,6.1,0,1,1-6.1-6.1A6.11,6.11,0,0,1,463.82,117.38ZM487.3,70.87a7.49,7.49,0,1,1-7.49-7.49A7.5,7.5,0,0,1,487.3,70.87Z"/><path class="cls-4" d="M162.67,58.58A7.44,7.44,0,1,1,170.11,66,7.42,7.42,0,0,1,162.67,58.58Z"/><path class="cls-6" d="M238.24,39.39l-2.87,6a3.62,3.62,0,0,0,1.48,1.39c2.79,1.34,7-1.57,9.38-6.52L265.59,0h-8.4Z"/><path class="cls-4" d="M226.73,38.8l-3.13,6.56a3.42,3.42,0,0,0,1.46,1.45c2.79,1.35,7.17-1.95,9.77-7.38L253.66,0h-8.4Z"/><path class="cls-4" d="M234.46,118.28a7.2,7.2,0,0,1,.19,1.78v.77a.18.18,0,0,0,0,.14,3.74,3.74,0,0,1-.1.67v0a8.69,8.69,0,0,1-1.78,3.89l-4.51,5.76v-8.16H201.48a9,9,0,0,1-7-14.5l4.51-5.76v8.21h26.74a9,9,0,0,1,7.87,4.66,9.75,9.75,0,0,1,.67,1.63A5.6,5.6,0,0,1,234.46,118.28Z"/></g></g></g></svg>