<svg id="Layer_1" data-name="Layer 1" xmlns="http://www.w3.org/2000/svg" viewBox="0 0 511.3 163.3"><defs><style>.cls-1{opacity:0.5;}.cls-2{fill:#e9e9d7;}.cls-3{fill:#da875b;}.cls-4{fill:#3ac0c3;}.cls-5{fill:#6f3a26;}</style></defs><title>Artigraphy_LOGO_Artboard 1</title><g id="Layer_2" data-name="Layer 2"><g id="Layer_2-2" data-name="Layer 2-2"><g class="cls-1"><path class="cls-2" d="M496.3,163H0V26.7a15,15,0,0,1,15-15H511.3V148a15,15,0,0,1-15,15Z"/></g></g><path class="cls-3" d="M42.6,102.1a9.3,9.3,0,1,1-9.3-9.3A9.16,9.16,0,0,1,42.6,102.1Zm36.6,9.4H62.6l-22.2-44,8.3-16.4Z"/><path class="cls-4" d="M89.8,63.4h14.8v48H89.8Zm27.7,15a7.5,7.5,0,1,1,7.5-7.5A7.55,7.55,0,0,1,117.5,78.4Z"/><path class="cls-3" d="M145.1,68.3v35.2h10.1l-7.1,5.6a11.26,11.26,0,0,1-6.8,2.4,11,11,0,0,1-11-11V62.8l14.8-11.7V63.3h10.1v4.9H145.1Z"/><path class="cls-4" d="M162.7,58.6a7.4,7.4,0,1,1,7.4,7.4A7.38,7.38,0,0,1,162.7,58.6Zm25,44.7-7.2,5.6a11,11,0,0,1-17.8-8.6V71.5h14.8v31.8Z"/><path class="cls-4" d="M192.4,83.2c0-12,10.7-19.8,20.2-19.8-3.7,1.7-6.3,9.9-6.3,19.8s3.1,18.2,6.3,19.8C203.2,103.1,192.4,95.2,192.4,83.2Zm42.1,35.2a11,11,0,0,1,.2,1.8v.9a2,2,0,0,1-.1.7h0a8.68,8.68,0,0,1-1.8,3.9l-4.5,5.8v-8.2H201.5a8.94,8.94,0,0,1-8.9-9,9.16,9.16,0,0,1,1.9-5.5L199,103v8.2h26.7a9.09,9.09,0,0,1,7.9,4.7,11.11,11.11,0,0,1,.7,1.6A2.92,2.92,0,0,1,234.5,118.4Zm-11.6,13.1a8.53,8.53,0,0,1,.6,3.1,8.92,8.92,0,0,1-8.9,8.9H203.2a8.9,8.9,0,0,1-7-14.4l4.6-5.8v8.2h22.1Zm11.8-48.3c0,12-10.7,19.8-20.2,19.8,3.2-1.6,6.4-9.9,6.4-19.8s-2.6-18.1-6.4-19.8C224,63.4,234.7,71.2,234.7,83.2Zm3.5-31.9L223.6,63.5V51.3Z"/><path class="cls-3" d="M244.8,63.4h14.8v48H244.8Zm27.7,15a7.5,7.5,0,1,1,7.5-7.5A7.55,7.55,0,0,1,272.5,78.4Z"/><path class="cls-4" d="M297.5,97.8c0,5.2,3.6,9.8,8.8,12a18.6,18.6,0,0,1-7.5,1.5c-9,0-16.3-6-16.3-13.5s7.3-13.5,16.3-13.5a18.27,18.27,0,0,1,7.5,1.5C301.1,88,297.5,92.5,297.5,97.8Zm-10.2-27a7.5,7.5,0,0,1,15,0,7.5,7.5,0,0,1-15,0Zm46.1,32.5-7.1,5.6a11,11,0,0,1-17.7-8.6V64a9.86,9.86,0,0,1,3.8-.7,11,11,0,0,1,10.9,11v29Z"/><path class="cls-3" d="M354.2,74.4v49.2H339.4V64.1a12.17,12.17,0,0,1,3.8-.7A11,11,0,0,1,354.2,74.4ZM386,95.3a23.67,23.67,0,0,1-30,14.6,23.82,23.82,0,0,0,.2-45c-.1,0-.3-.1-.4-.1a23.51,23.51,0,0,1,15.7.1A23.81,23.81,0,0,1,386,95.3Z"/><path class="cls-4" d="M409.4,111.3H394.6V51.2h14.8Zm16.9-47.8a10.93,10.93,0,0,1,10.9,10.9v36.9H422.5V71.7H412.1l7.4-5.8A10.86,10.86,0,0,1,426.3,63.5Z"/><path class="cls-3" d="M460,63.5l15.9,31.6-8.3,16.3L443.4,63.5Zm3.8,54a6.1,6.1,0,1,1-6.1-6.1A6.06,6.06,0,0,1,463.8,117.5ZM487.3,71a7.5,7.5,0,1,1-7.5-7.5A7.55,7.55,0,0,1,487.3,71Z"/><path class="cls-3" d="M162.7,58.7a7.4,7.4,0,1,1,7.4,7.4A7.38,7.38,0,0,1,162.7,58.7Z"/><path class="cls-5" d="M238.3,39.5l-2.9,6a4,4,0,0,0,1.5,1.4c2.8,1.3,7-1.6,9.4-6.5L265.7.2h-8.4Z"/><path class="cls-3" d="M226.7,38.9l-3.1,6.6a3.61,3.61,0,0,0,1.5,1.5c2.8,1.4,7.2-1.9,9.8-7.4L253.7.2h-8.4Z"/><path class="cls-3" d="M234.5,118.4a11,11,0,0,1,.2,1.8v.9a2,2,0,0,1-.1.7h0a8.68,8.68,0,0,1-1.8,3.9l-4.5,5.8v-8.2H201.5a8.94,8.94,0,0,1-8.9-9,9.16,9.16,0,0,1,1.9-5.5L199,103v8.2h26.7a9.09,9.09,0,0,1,7.9,4.7,11.11,11.11,0,0,1,.7,1.6C234.4,117.8,234.4,118.1,234.5,118.4Z"/></g></svg>