<?xml version="1.0" encoding="utf-8"?>
<!-- Generator: Adobe Illustrator 21.0.0, SVG Export Plug-In . SVG Version: 6.00 Build 0)  -->
<svg version="1.1" id="Layer_1" xmlns="http://www.w3.org/2000/svg" xmlns:xlink="http://www.w3.org/1999/xlink" x="0px" y="0px"
	 viewBox="0 0 511.3 163.3" style="enable-background:new 0 0 511.3 163.3;" xml:space="preserve">
<style type="text/css">
	.st0{opacity:0.5;}
	.st1{fill:#E9E9D7;}
	.st2{fill:none;stroke:#C37A66;stroke-width:1.4173;stroke-miterlimit:10;}
	.st3{fill:#C47A67;}
	.st4{fill:#3AC0C3;}
	.st5{fill:#6F3A26;}
</style>
<title>Artigraphy-LOGO_3</title>
<g id="Layer_2">
	<g id="Layer_2-2">
		<g class="st0">
			<path class="st1" d="M496.3,163H0V26.7c0-8.3,6.7-15,15-15h496.3V148C511.3,156.3,504.6,163,496.3,163L496.3,163z"/>
		</g>
	</g>
	<path class="st2" d="M255.7,147.9"/>
	<path class="st3" d="M255.7,93.3"/>
	<path class="st2" d="M255.7,149.3"/>
	<path class="st2" d="M255.7,149.3"/>
	<g>
		<g>
			<path class="st3" d="M42.6,102.1c0,5.1-4.2,9.3-9.3,9.3c-5.1,0-9.3-4.2-9.3-9.3c0-5.1,4.2-9.3,9.3-9.3
				C38.5,92.7,42.6,96.9,42.6,102.1z M79.2,111.5H62.6L40.4,67.5l8.3-16.4L79.2,111.5z"/>
			<path class="st4" d="M89.8,63.4h14.8v48H89.8V63.4z M117.5,78.4c-4.1,0-7.5-3.4-7.5-7.5c0-4.1,3.4-7.5,7.5-7.5
				c4.2,0,7.5,3.4,7.5,7.5C125,75,121.7,78.4,117.5,78.4z"/>
			<path class="st3" d="M145.1,68.3v35.2h10.1l-7.1,5.6c-2,1.5-4.3,2.4-6.8,2.4c-6,0-11-4.9-11-11V68.3v-4.9v-0.6l14.8-11.7v12.2
				h10.1v4.9H145.1z"/>
			<path class="st4" d="M162.7,58.6c0-4.1,3.3-7.4,7.4-7.4c4.1,0,7.4,3.3,7.4,7.4s-3.3,7.4-7.4,7.4C166,66,162.7,62.7,162.7,58.6z
				 M187.7,103.3l-7.2,5.6c-1.9,1.5-4.3,2.4-6.8,2.4c-6,0-11-4.9-11-11V71.5h14.8v31.8H187.7z"/>
			<path class="st4" d="M192.4,83.2c0-12,10.7-19.8,20.2-19.8c-3.7,1.7-6.3,9.9-6.3,19.8c0,9.9,3.1,18.2,6.3,19.8
				C203.2,103.1,192.4,95.2,192.4,83.2z M234.5,118.4c0.1,0.6,0.2,1.2,0.2,1.8c0,0.3,0,0.5,0,0.8c0,0,0,0.1,0,0.1
				c0,0.2,0,0.4-0.1,0.7c0,0,0,0,0,0c-0.2,1.4-0.9,2.7-1.8,3.9l-4.5,5.8v-8.2h-24.6h-2.2c-4.9,0-8.9-4-8.9-9c0-2,0.7-3.9,1.9-5.5
				l4.5-5.8v8.2h8.7h18c3.4,0,6.3,1.9,7.9,4.7c0.3,0.5,0.5,1.1,0.7,1.6C234.4,117.8,234.5,118.1,234.5,118.4z M222.9,131.5
				c0.4,1,0.6,2.1,0.6,3.1c0,4.9-4,8.9-8.9,8.9h-6.4h-4.4h-0.6c-4.9,0-8.9-4-8.9-8.9c0-2,0.7-4,1.9-5.5l4.6-5.8v8.2h3.1h4.4h8.9
				H222.9z M234.7,83.2c0,12-10.7,19.8-20.2,19.8c3.2-1.6,6.4-9.9,6.4-19.8c0-9.9-2.6-18.1-6.4-19.8C224,63.4,234.7,71.2,234.7,83.2
				z M238.2,51.3l-14.6,12.2V51.3H238.2z"/>
			<path class="st3" d="M244.8,63.4h14.8v48h-14.8V63.4z M272.5,78.4c-4.1,0-7.5-3.4-7.5-7.5c0-4.1,3.4-7.5,7.5-7.5
				c4.2,0,7.5,3.4,7.5,7.5C280,75,276.7,78.4,272.5,78.4z"/>
			<path class="st4" d="M297.5,97.8c0,5.2,3.6,9.8,8.8,12c-2.3,1-4.8,1.5-7.5,1.5c-9,0-16.3-6-16.3-13.5c0-7.5,7.3-13.5,16.3-13.5
				c2.7,0,5.3,0.5,7.5,1.5C301.1,88,297.5,92.5,297.5,97.8z M287.3,70.8c0-4.1,3.4-7.4,7.5-7.4c4.1,0,7.5,3.3,7.5,7.4
				s-3.4,7.5-7.5,7.5C290.7,78.3,287.3,75,287.3,70.8z M333.4,103.3l-7.1,5.6c-1.9,1.5-4.3,2.3-6.8,2.3c-6,0-10.9-4.9-10.9-10.9
				V76.9v-5.7V64c1.2-0.5,2.5-0.7,3.8-0.7c6,0,10.9,4.9,10.9,11v18.3v10.7H333.4z"/>
			<path class="st3" d="M354.2,74.4v49.2h-14.8V71.4v-7.3c1.2-0.4,2.5-0.7,3.8-0.7C349.3,63.4,354.2,68.3,354.2,74.4z M386,95.3
				c-4.3,12.3-17.7,18.8-30,14.6c6.6-2.3,12.2-7.4,14.7-14.5c4.4-12.4-2.1-26.1-14.5-30.5c-0.1,0-0.3-0.1-0.4-0.1
				c4.9-1.7,10.5-1.8,15.7,0.1C383.9,69.3,390.4,82.9,386,95.3z"/>
			<path class="st4" d="M409.4,111.3h-14.8V51.2h14.8V111.3z M426.3,63.5c6,0,10.9,4.9,10.9,10.9v36.9h-14.7V71.7h-10.4l7.4-5.8
				C421.5,64.3,423.9,63.5,426.3,63.5z"/>
			<path class="st3" d="M460,63.5l15.9,31.6l-8.3,16.3l-24.2-47.9H460z M463.8,117.5c0,3.4-2.7,6.1-6.1,6.1s-6.1-2.7-6.1-6.1
				s2.7-6.1,6.1-6.1S463.8,114.1,463.8,117.5z M487.3,71c0,4.1-3.4,7.5-7.5,7.5s-7.5-3.4-7.5-7.5s3.4-7.5,7.5-7.5
				S487.3,66.9,487.3,71z"/>
			<path class="st3" d="M162.7,58.7c0-4.1,3.3-7.4,7.4-7.4c4.1,0,7.4,3.3,7.4,7.4s-3.3,7.4-7.4,7.4C166,66.1,162.7,62.8,162.7,58.7z
				"/>
		</g>
	</g>
	<g>
		<path class="st5" d="M238.3,39.5l-2.9,6c0.4,0.6,0.9,1.1,1.5,1.4c2.8,1.3,7-1.6,9.4-6.5l19.4-40.2l0,0h-8.4L238.3,39.5z"/>
		<path class="st3" d="M226.7,38.9l-3.1,6.6c0.4,0.7,0.9,1.2,1.5,1.5c2.8,1.4,7.2-1.9,9.8-7.4l18.8-39.4h-8.4L226.7,38.9z"/>
	</g>
	<path class="st3" d="M234.5,118.4c0.1,0.6,0.2,1.2,0.2,1.8c0,0.3,0,0.5,0,0.8c0,0,0,0.1,0,0.1c0,0.2,0,0.4-0.1,0.7c0,0,0,0,0,0
		c-0.2,1.4-0.9,2.7-1.8,3.9l-4.5,5.8v-8.2h-24.6h-2.2c-4.9,0-8.9-4-8.9-9c0-2,0.7-3.9,1.9-5.5l4.5-5.8v8.2h8.7h18
		c3.4,0,6.3,1.9,7.9,4.7c0.3,0.5,0.5,1.1,0.7,1.6C234.4,117.8,234.4,118.1,234.5,118.4z"/>
</g>
</svg>
