<svg xmlns="http://www.w3.org/2000/svg" viewBox="0 0 511.33 163.28"><defs><style>.cls-1{opacity:0.5;}.cls-2{fill:#e9e9d7;}.cls-3{fill:none;stroke:#c37a66;stroke-width:1.42px;}.cls-3,.cls-8,.cls-9{stroke-miterlimit:10;}.cls-4,.cls-8{fill:#c47a67;}.cls-5{fill:#994d4d;}.cls-6{fill:#3ac0c3;}.cls-7{fill:#038982;}.cls-8{stroke:#994d4d;}.cls-8,.cls-9{stroke-width:0.28px;}.cls-9{fill:#6f3a26;stroke:#281010;}</style></defs><title>Artigraphy-LOGO_3</title><g id="Layer_2" data-name="Layer 2"><g id="Layer_2-2" data-name="Layer 2"><g class="cls-1"><path class="cls-2" d="M496.33,163.28H0V26.95a15,15,0,0,1,15-15H511.33V148.28A15,15,0,0,1,496.33,163.28Z"/></g></g><g id="Layer_1-2" data-name="Layer 1"><path class="cls-3" d="M48.23,152.42"/><path class="cls-4" d="M81.72,93.5"/><path class="cls-3" d="M48.23,153.78"/><path class="cls-3" d="M112.83,153.78"/><path class="cls-4" d="M69,111.57,46.91,67.78l8.14-16.06,30.26,59.84Zm-29.37-.1a9.17,9.17,0,1,1,9.17-9.17A9.18,9.18,0,0,1,39.65,111.47Z"/><path class="cls-5" d="M55.05,52l30,59.39h-16l-22-43.65,8-15.74M39.65,93.28h0a9,9,0,1,1-9,9,9.05,9.05,0,0,1,9-9m15.4-41.86-8.3,16.37,22.18,43.93H85.54L55.05,51.41ZM39.65,93A9.31,9.31,0,1,0,49,102.3,9.31,9.31,0,0,0,39.65,93Z"/><path class="cls-6" d="M96.23,111.47V63.75h14.46v47.72Zm27.62-33a7.36,7.36,0,1,1,7.28-7.36,7.39,7.39,0,0,1-7.28,7.36Z"/><path class="cls-7" d="M110.55,63.9v47.43H96.38V63.9h14.17m13.24,0a7.22,7.22,0,0,1,.11,14.43l0,0h-.07a7.21,7.21,0,0,1,0-14.41m-13-.3H96.09v48h14.74v-48Zm13,0a7.49,7.49,0,1,0,0,15l0,0a7.5,7.5,0,0,0,0-15Z"/><path class="cls-8" d="M151.44,68.55v35.19h10.08l-7.06,5.57a11,11,0,0,1-17.81-8.64V63l14.79-11.67V63.6h10.08v4.94Z"/><path class="cls-6" d="M180,111.47a10.87,10.87,0,0,1-10.86-10.86V72h14.54v31.83l9.9,0-6.84,5.36a10.82,10.82,0,0,1-6.73,2.37Zm-3.59-45.36a7.3,7.3,0,1,1,7.32-7.3,7.29,7.29,0,0,1-7.32,7.3Z"/><path class="cls-7" d="M176.44,51.66a7.16,7.16,0,1,1-7.16,7.16,7.16,7.16,0,0,1,7.16-7.16m7.11,20.44v31.83h.28l9.34,0-6.52,5.1a10.69,10.69,0,0,1-17.36-8.38V72.1h14.25m-7.11-20.72A7.44,7.44,0,0,0,169,58.81v0a7.42,7.42,0,0,0,7.42,7.4h0a7.44,7.44,0,0,0,0-14.88Zm7.39,20.44H169v28.8a11,11,0,0,0,17.82,8.6L194,103.6l-10.17,0V71.81Z"/><path class="cls-6" d="M209.35,143.64a8.78,8.78,0,0,1-8.77-8.75,8.93,8.93,0,0,1,1.84-5.47l4.31-5.44v7.89h22.38a8.58,8.58,0,0,1,.54,3,8.78,8.78,0,0,1-8.75,8.79Zm25.42-20.26H207.83a8.86,8.86,0,0,1-8.73-9,8.92,8.92,0,0,1,1.85-5.29l4.26-5.44v8h26.88a8.86,8.86,0,0,1,7.75,4.59,9.64,9.64,0,0,1,.66,1.6,5.47,5.47,0,0,1,.21.86,7.1,7.1,0,0,1,.19,1.76v.77a.24.24,0,0,0,0,.2c0,.15-.06.37-.11.58a8.59,8.59,0,0,1-1.75,3.83l-4.26,5.44Zm-13.4-20.2c3-2.09,6-9.88,6-19.68,0-9.59-2.41-17.5-5.93-19.68,9.5.31,19.43,8.14,19.43,19.68S230.89,102.91,221.37,103.18Zm-3,0c-9.52-.3-19.5-8.14-19.5-19.68s9.94-19.37,19.44-19.68c-3.5,2.19-5.9,10.1-5.9,19.68C212.44,93.3,215.45,101.09,218.41,103.18Zm11.66-51.54h14.11L230.06,63.4Z"/><path class="cls-7" d="M243.78,51.79,230.21,63.1V51.79h13.57M221.92,64c9.27.55,18.81,8.25,18.81,19.52s-9.61,19-18.92,19.52c2.88-2.46,5.71-10.06,5.71-19.52,0-9.26-2.26-17-5.59-19.52m-4.06,0c-3.32,2.56-5.56,10.26-5.56,19.51,0,8.52,2.47,16.83,5.66,19.52C208.65,102.5,199,94.78,199,83.5s9.53-19,18.81-19.51m-12.8,40.1v7.7h27a8.72,8.72,0,0,1,7.62,4.51,9.51,9.51,0,0,1,.65,1.59,5.49,5.49,0,0,1,.2.86,6.93,6.93,0,0,1,.18,1.72v.73a.47.47,0,0,0,0,.22,3.58,3.58,0,0,1-.09.59,8.44,8.44,0,0,1-1.72,3.77l-4,5.11v-7.62H207.84a8.72,8.72,0,0,1-6.78-14l4-5.11m1.53,20.3V132H229a8.43,8.43,0,0,1,.49,2.84,8.63,8.63,0,0,1-8.65,8.65H209.35a8.65,8.65,0,0,1-8.63-8.65,8.76,8.76,0,0,1,1.81-5.34l4.05-5.12m38-72.88H229.92V63.7l14.64-12.2ZM220.87,63.67h0c3.79,1.68,6.38,9.89,6.38,19.83s-3.16,18.2-6.38,19.83c9.5,0,20.16-7.83,20.16-19.83s-10.65-19.83-20.14-19.83Zm-1.95,0c-9.45,0-20.16,7.83-20.16,19.83s10.71,19.81,20.16,19.83c-3.22-1.64-6.34-9.94-6.34-19.83s2.6-18.15,6.34-19.83Zm-13.58,39.59L200.83,109a9,9,0,0,0,7,14.5h26.8v8.16l4.51-5.76a8.69,8.69,0,0,0,1.78-3.89,3.74,3.74,0,0,0,.1-.67.18.18,0,0,1,0-.14v-.77a7.2,7.2,0,0,0-.19-1.78,5.6,5.6,0,0,0-.21-.88,9.75,9.75,0,0,0-.67-1.63,9,9,0,0,0-7.87-4.66H205.34v-8.24Zm1.53,20.31-4.56,5.76a9,9,0,0,0-1.87,5.52s0,0,0,0a8.91,8.91,0,0,0,8.91,8.89H220.9a8.91,8.91,0,0,0,8.89-8.93,8.75,8.75,0,0,0-.58-3.12H206.87v-8.16Z"/><path class="cls-4" d="M251.27,111.47V63.75h14.51v47.72Zm27.7-33h-.14a6.5,6.5,0,1,1,.14,0Z"/><path class="cls-5" d="M278.83,63.63v.28a7.22,7.22,0,0,1,.28,14.43h-.28a7.21,7.21,0,1,1,0-14.41v-.28m-13.19.26v47.43H251.42V63.9h14.22m.28-.28H251.13v48h14.79v-48Zm12.91,0a7.49,7.49,0,0,0,0,15v0a7.5,7.5,0,0,0,7.49-7.51h0a7.49,7.49,0,0,0-7.49-7.49Z"/><path class="cls-6" d="M305.12,111.38c-8.92,0-16.18-6-16.18-13.4s7.26-13.34,16.19-13.34h.12A18.94,18.94,0,0,1,312.31,86c-5.33,2.44-8.62,7-8.62,12s3.29,9.63,8.61,12a18.93,18.93,0,0,1-7,1.35Zm20.74-.15a10.83,10.83,0,0,1-10.8-10.73V64.38a10.05,10.05,0,0,1,3.63-.68,10.88,10.88,0,0,1,10.82,10.86V103.7l9.76-.06L332.55,109a11,11,0,0,1-6.67,2.27ZM301.07,78.45a7.35,7.35,0,1,1,7.38-7.35,7.33,7.33,0,0,1-7.38,7.35Z"/><path class="cls-7" d="M318.7,63.56l0,.28a10.74,10.74,0,0,1,10.67,10.72v29.29h.29l9.21-.06-6.41,5.06a10.87,10.87,0,0,1-6.6,2.24,10.68,10.68,0,0,1-10.66-10.59v-36a9.91,9.91,0,0,1,3.49-.63v-.28m-17.59.05v.28a7.21,7.21,0,1,1-7.21,7.27V71.1a7.21,7.21,0,0,1,7.21-7.21v-.28m4.16,21.17A18.8,18.8,0,0,1,312,86c-5.2,2.5-8.4,7.05-8.4,12s3.19,9.56,8.38,12a18.8,18.8,0,0,1-6.69,1.22h-.13c-8.84,0-16-5.95-16-13.26s7.2-13.2,16-13.2h.12M318.7,63.56a10.24,10.24,0,0,0-3.77.72V100.5a10.94,10.94,0,0,0,10.94,10.87h0a11.09,11.09,0,0,0,6.76-2.3l7.06-5.57-10,.06v-29a11,11,0,0,0-11-11Zm-17.59,0a7.49,7.49,0,0,0-7.49,7.49s0,0,0,.06a7.46,7.46,0,0,0,7.46,7.43h0a7.49,7.49,0,1,0,0-15Zm4.16,20.89h-.13c-9,0-16.33,5.94-16.33,13.48s7.32,13.54,16.32,13.54h.13a19.19,19.19,0,0,0,7.41-1.49c-5.23-2.21-8.83-6.77-8.83-12s3.6-9.75,8.84-12a19.19,19.19,0,0,0-7.41-1.49Z"/><path class="cls-4" d="M345.89,123.62V64.43a11.08,11.08,0,0,1,3.65-.63,10.89,10.89,0,0,1,10.85,10.8v49Zm24-12.28a23.58,23.58,0,0,1-7.13-1.11,24,24,0,0,0-.2-45.13h0a23.73,23.73,0,0,1,29.81,30l-.15.42A23.67,23.67,0,0,1,369.88,111.34Z"/><path class="cls-5" d="M349.53,63.95A10.74,10.74,0,0,1,360.24,74.6v48.88H346V64.53a10.94,10.94,0,0,1,3.51-.59m20.26.15a23.59,23.59,0,0,1,22.46,30.79l-.22.63a23.47,23.47,0,0,1-28.86,14.71A24.13,24.13,0,0,0,363,65.11a23.5,23.5,0,0,1,6.84-1m-20.26-.43a11.26,11.26,0,0,0-3.79.67v59.43h14.78V74.6a11,11,0,0,0-11-10.94Zm20.26.15a23.84,23.84,0,0,0-7.73,1.29l.43.14a23.85,23.85,0,0,1-.19,45,23.76,23.76,0,0,0,30-14.64v0A23.88,23.88,0,0,0,369.8,63.81Z"/><path class="cls-6" d="M429,111.43V71.77H418.82l7.1-5.56a11,11,0,0,1,6.7-2.32,10.82,10.82,0,0,1,10.81,10.79v36.75Zm-27.89,0V51.64h14.51v59.78Z"/><path class="cls-7" d="M415.45,51.79v59.49H401.23V51.79h14.22M432.63,64A10.67,10.67,0,0,1,443.29,74.7v36.59H429.12V71.63h-9.88l6.77-5.3A10.84,10.84,0,0,1,432.62,64h0M415.73,51.5H400.94v60.06h14.78V51.5Zm16.9,12.25h0a11.07,11.07,0,0,0-6.79,2.35l-7.42,5.81h10.42v39.66h14.74V74.68a10.94,10.94,0,0,0-10.94-10.93Z"/><path class="cls-4" d="M464.05,123.71a6,6,0,1,1,6-6A6,6,0,0,1,464.05,123.71ZM450,63.89h16.24l15.87,31.45-8.1,16Zm36.15,14.69A7.35,7.35,0,1,1,493.49,71v.22A7.36,7.36,0,0,1,486.13,78.58Z"/><path class="cls-5" d="M486.13,64a7.23,7.23,0,0,1,7.21,6.83v.37A7.21,7.21,0,1,1,486.13,64m-20,0,15.8,31.31L474,111,450.21,64h15.92m-2.09,47.9h0a5.82,5.82,0,1,1-5.82,5.82,5.84,5.84,0,0,1,5.82-5.82m22.08-48.19h0a7.49,7.49,0,1,0,7.49,7.49h0a7.5,7.5,0,0,0-7.5-7.5Zm-19.82,0H449.75L474,111.66l8.26-16.32L466.31,63.75Zm-2.26,47.9a6.1,6.1,0,1,0,6.1,6.11,6.1,6.1,0,0,0-6.1-6.11Zm6.1,6.1h0Z"/><path class="cls-4" d="M169,59a7.44,7.44,0,1,1,7.44,7.44A7.44,7.44,0,0,1,169,59S169,59,169,59Z"/><path class="cls-9" d="M244.66,39.5l-2.83,6a3.62,3.62,0,0,0,1.48,1.39c2.79,1.34,7-1.57,9.38-6.52L272.05.14h-8.4Z"/><path class="cls-4" d="M232.84,47.1a3,3,0,0,1-1.3-.29,3.24,3.24,0,0,1-1.36-1.32l3.1-6.48L251.76.6h8.09L241.12,39.55C239,44,235.57,47.1,232.84,47.1Z"/><path class="cls-5" d="M259.62.75,241,39.49c-2.12,4.4-5.47,7.47-8.15,7.47a2.84,2.84,0,0,1-1.24-.27,3.11,3.11,0,0,1-1.27-1.2l3.07-6.42L251.85.75h7.77m.45-.28h-8.4L233.14,39,230,45.5a3.41,3.41,0,0,0,1.46,1.44,3.12,3.12,0,0,0,1.37.3c2.71,0,6.2-3,8.4-7.63L260.07.46Z"/><path class="cls-4" d="M234.68,123.36H207.76a8.86,8.86,0,0,1-8.73-9,8.91,8.91,0,0,1,1.85-5.29l4.26-5.44v8H232a8.86,8.86,0,0,1,7.75,4.59,9.65,9.65,0,0,1,.66,1.6,5.63,5.63,0,0,1,.19.84,7.16,7.16,0,0,1,.19,1.76v.77a.24.24,0,0,0,0,.2c0,.15-.06.37-.11.58a8.59,8.59,0,0,1-1.75,3.83l-4.26,5.44Z"/><path class="cls-5" d="M205,104.06v7.72h27a8.72,8.72,0,0,1,7.62,4.51,9.49,9.49,0,0,1,.65,1.58,5.56,5.56,0,0,1,.19.84,6.93,6.93,0,0,1,.18,1.72v.73a.47.47,0,0,0,0,.22,3.58,3.58,0,0,1-.09.59,8.44,8.44,0,0,1-1.72,3.77l-4,5.11v-7.62H207.77a8.72,8.72,0,0,1-6.78-14l4-5.11m.28-.82L200.76,109a9,9,0,0,0,7,14.5h26.78v8.16l4.51-5.76a8.69,8.69,0,0,0,1.78-3.89,3.74,3.74,0,0,0,.1-.67.18.18,0,0,1,0-.14v-.77a7.2,7.2,0,0,0-.19-1.78,5.6,5.6,0,0,0-.19-.86,9.75,9.75,0,0,0-.67-1.63A9,9,0,0,0,232,111.5H205.27v-8.26Z"/></g></g></svg>