<svg id="Layer_1_copy_2" data-name="Layer 1 copy 2" xmlns="http://www.w3.org/2000/svg" viewBox="0 0 242.67 183.33"><defs><style>.cls-1{fill:#0cc;}.cls-2{fill:none;}.cls-3{fill:#fff;}.cls-4{fill:#e49373;}</style></defs><title>English_Finish_logo_aqua_frame_and_copper_pen</title><path class="cls-1" d="M215.82,5.41h2.52a1,1,0,0,1,1,1V25.53a1,1,0,0,1-1,1h-1.52a1,1,0,0,1-1-1V5.41A0,0,0,0,1,215.82,5.41Z" transform="translate(201.61 233.55) rotate(-90)"/><g id="Layer_2" data-name="Layer 2"><g id="Layer_2-2" data-name="Layer 2-2"><rect class="cls-2" width="242.67" height="183.33"/><path class="cls-1" d="M224.13,121.68a.9.9,0,0,1,.79-1H227q1.07,0,1.07,1v24q0,1-1.07,1h-1.9a.9.9,0,0,1-1-1v-10.4q0-1-1.15-1H212.84q-1.69,0-1.69,1.55v9.87a.9.9,0,0,1-.79,1h-2.14a.9.9,0,0,1-1-1V105.12q0-1.08,1-1.08h1.93q1,0,1,1.08V131q0,1.32,1.15,1.32h10.81a1.82,1.82,0,0,0,.91-.12,1.42,1.42,0,0,0,.12-.78Z"/><path class="cls-3" d="M115.63,167h-8.08l-3.68.06a.28.28,0,0,0-.27.17,5.61,5.61,0,0,1-.76,1.09,2.94,2.94,0,0,1-2.6.72,2.88,2.88,0,0,1-1.62-.94,3,3,0,0,1-.76-2.26,2.81,2.81,0,0,1,.85-1.83,2.9,2.9,0,0,1,2.44-.89,2.86,2.86,0,0,1,2.16,1.3c.1.15.16.33.27.48a.34.34,0,0,0,.22.14h11.61c.16,0,.2-.06.19-.21v-2.29l-.2-.06c-.95-.17-1.89-.32-2.84-.5-.73-.14-1.45-.29-2.17-.48-1.38-.36-2.75-.74-4.12-1.12-.66-.18-1.31-.39-2-.62q-2-.71-4-1.45a17.86,17.86,0,0,1-1.69-.72q-1.82-.9-3.62-1.85c-.44-.23-.84-.54-1.27-.78a1.05,1.05,0,0,0-.9-.22,2.8,2.8,0,0,0-.76.43c-.6.51-1.18,1-1.77,1.57l-1.2,1.06-2.95,2.58a.46.46,0,0,0-.14.31v4.5c0,1,0,1.91.06,2.87v3.82c0,.47,0,.85.52,1h0L88.14,174l1.44,1.18c.82.67,1.62,1.36,2.45,2a8.88,8.88,0,0,0,1.09.71.7.7,0,0,0,.75-.08c.6-.38,1.18-.78,1.78-1.15s1.15-.69,1.74-1,1.19-.62,1.79-.91,1.18-.54,1.77-.8,1.26-.54,1.89-.78c1.29-.48,2.57-1,3.87-1.42.71-.25,1.43-.45,2.14-.67s1.28-.4,1.92-.56c1.14-.28,2.28-.54,3.42-.8l1.43-.31Zm-35,2.13h.07v3.53a.58.58,0,0,0,.81.58l2.26-.8a.28.28,0,0,0,.23-.32h0c0-1.4,0-2.81-.07-4.21v-7.19a.21.21,0,0,0-.18-.24h0l-1.14-.36-1.26-.42a.51.51,0,0,0-.38,0,.73.73,0,0,0-.34.64v2.08c0,1,.05,2,.06,3v3.71Z"/><path class="cls-4" d="M117.77,167c-.08.76.45,1.61,0,2.22a1.73,1.73,0,0,1-1.14.53,60.57,60.57,0,0,0-20,7.68,1.91,1.91,0,0,1-1.33.41,1.86,1.86,0,0,1-.73-.42c-1.28-1-2.57-2-3.78-3.14a6.3,6.3,0,0,1-2.43-4.6c-.14-2.43-.13-4.89-.14-7.33A3.38,3.38,0,0,1,89.75,159L94,155.34a2.25,2.25,0,0,1,.82-.53,2.32,2.32,0,0,1,1.67.42,63.58,63.58,0,0,0,20.54,7,.94.94,0,0,1,.73.36.92.92,0,0,1,.06.49l-.12,1.75-10,.24a3.49,3.49,0,0,1-1.66-.23,8.8,8.8,0,0,1-1.24-1,2.86,2.86,0,1,0-.22,4.72,14.82,14.82,0,0,1,1.8-1.32A4.14,4.14,0,0,1,108,167Z"/><path class="cls-1" d="M80.67,169.12V165.5c0-1,0-2-.06-3v-2.08a.73.73,0,0,1,.34-.64.51.51,0,0,1,.38,0l1.26.42,1.14.36a.21.21,0,0,1,.19.23h0V168c0,1.4,0,2.81.07,4.21a.28.28,0,0,1-.22.33h0l-2.26.8a.58.58,0,0,1-.81-.58v-3.53Z"/><path class="cls-4" d="M57.56,80.33H41.9a6.14,6.14,0,0,1-1.26-.06.75.75,0,0,1-.66-.83V65.2q.06-1,1.92-1h14q1.38,0,1.38-.8v-1q0-.68-1.68-.68H41.54Q40,61.73,40,60.35V47.26a.75.75,0,0,1,.65-.84h0a6.23,6.23,0,0,1,1.26-.06h15q1.38,0,1.38-.74v-1q0-.74-1.68-.74H36.74a.9.9,0,0,0-1,1v37a.9.9,0,0,0,.79,1H57.2q1.74,0,1.74-.68V81.06Q58.94,80.33,57.56,80.33Z"/><path class="cls-4" d="M87.08,56.75q-1,0-1,1.8V73.31q0,1.14-.3,1.14c-.2,0-.4-.22-.72-.66l-10-15.18a3.78,3.78,0,0,0-3.24-1.86,2.9,2.9,0,0,0-2.13.87A3.21,3.21,0,0,0,68.84,60V81.47q0,1.32.9,1.32,1.08,0,1.08-1.32V61.55q0-1.32.58-1.32t1.17,1.11L85.93,82.23a1.25,1.25,0,0,0,1,.55q1.12,0,1.12-1.68V58.55Q88,56.75,87.08,56.75Z"/><path class="cls-4" d="M120.1,70.61h-1.89a1,1,0,0,0-1.06,1.08v6.24a2.42,2.42,0,0,1-.67,1.8,7.41,7.41,0,0,1-5.26,1.86q-3.51,0-6-3.51a14.33,14.33,0,0,1-2.48-8.49A14.48,14.48,0,0,1,105.21,61q2.47-3.51,6-3.51t6.5,4q.36.54.6.54l.54-.3a.9.9,0,0,0,.48-1.38,7.37,7.37,0,0,0-2.64-2.7A9.57,9.57,0,0,0,111.14,56a11.39,11.39,0,0,0-8.73,4,14.57,14.57,0,0,0,0,19.26,11.45,11.45,0,0,0,8.76,4,10.79,10.79,0,0,0,4.46-.84q1.5-.6,1.5.48v9.36q0,1,1.06,1h1.89a.9.9,0,0,0,1-1V71.69Q121.1,70.61,120.1,70.61Z"/><path class="cls-4" d="M134.72,40.07H132.8q-1,0-1,1.08V79.54a3.44,3.44,0,0,0,.84,2.34,2.8,2.8,0,0,0,2.22,1h4.92q.42,0,.42-1t-.66-.9h-2.4q-1.38,0-1.38-1.86v-38A.93.93,0,0,0,134.72,40.07Z"/><path class="cls-4" d="M148.52,81.83a.91.91,0,0,0,1.05,1h2a.92.92,0,0,0,1.05-1v-24a.94.94,0,0,0-1.05-1.08h-2a.94.94,0,0,0-1.05,1.08Z"/><path class="cls-1" d="M150.56,52.91a2,2,0,0,0,0-4.08,1.94,1.94,0,0,0-1.47.6,2.1,2.1,0,0,0,0,2.88A1.94,1.94,0,0,0,150.56,52.91Z"/><path class="cls-4" d="M171.5,58.43H177a.8.8,0,0,0,.9-.9q0-.78-1.14-.78h-6.12A6.91,6.91,0,0,0,165.5,59a7.38,7.38,0,0,0-2.16,5.3,5.46,5.46,0,0,0,2.15,4.55,15.83,15.83,0,0,0,5.14,2.21q5.25,1.56,5.25,4.79a5.48,5.48,0,0,1-1.25,3.53,3.84,3.84,0,0,1-3.1,1.56h-6.39a.88.88,0,0,0-1,1,.82.82,0,0,0,1,.93h6.6a8.66,8.66,0,0,0,5.58-2,6.13,6.13,0,0,0,2.46-5,7,7,0,0,0-2.22-5.58,13,13,0,0,0-5.22-2.4q-5.28-1.56-5.28-4.68a4.91,4.91,0,0,1,1.26-3.39A4,4,0,0,1,171.5,58.43Z"/><path class="cls-1" d="M114.4,104.05a6.94,6.94,0,0,0-2.58-.3q-7.08,0-7.08,9.48v32.39h0a.9.9,0,0,0,.79,1h2.13a.9.9,0,0,0,1-1h0V124.15a1.45,1.45,0,0,1,1.66-1.62h2.49q1.07,0,1.07-.93a.9.9,0,0,0-.79-1H112q-.71-.06-2.25-.06-1.13,0-1.13-1.26v-9.06a6.21,6.21,0,0,1,.93-3.54,2.73,2.73,0,0,1,2.31-1.38,7.18,7.18,0,0,1,2,.18q1,.24,1.2-.24a1.39,1.39,0,0,0,.12-.48Q115.3,104.41,114.4,104.05Z"/><path class="cls-4" d="M124.42,112.63a1.94,1.94,0,0,0-1.47.6,2.1,2.1,0,0,0,0,2.88,1.94,1.94,0,0,0,1.47.6,2,2,0,1,0,0-4.08Z"/><path class="cls-1" d="M125.41,120.55h-2a.94.94,0,0,0-1.05,1.08v24a.91.91,0,0,0,1.05,1h2a.92.92,0,0,0,1.05-1v-24a.94.94,0,0,0-1.05-1.08Z"/><path class="cls-1" d="M155.68,120.55q-1,0-1,1.8v14.76q0,1.14-.3,1.14c-.2,0-.4-.22-.72-.66l-10-15.18a3.78,3.78,0,0,0-3.24-1.86,2.9,2.9,0,0,0-2.13.87,3.21,3.21,0,0,0-.87,2.37v21.48q0,1.32.9,1.32,1.08,0,1.08-1.32V125.35q0-1.32.58-1.32t1.17,1.11L154.53,146a1.25,1.25,0,0,0,1,.55q1.12,0,1.12-1.68V122.35Q156.64,120.55,155.68,120.55Z"/><path class="cls-1" d="M170.65,120.55h-2a.94.94,0,0,0-1.05,1.08v24a.91.91,0,0,0,1.05,1h2a.92.92,0,0,0,1.05-1v-24a.94.94,0,0,0-1.05-1.08Z"/><path class="cls-4" d="M169.66,112.63a1.94,1.94,0,0,0-1.47.6,2.1,2.1,0,0,0,0,2.88,1.94,1.94,0,0,0,1.47.6,2,2,0,1,0,0-4.08Z"/><path class="cls-1" d="M196.72,134.11a13,13,0,0,0-5.22-2.4q-5.28-1.56-5.28-4.68a4.91,4.91,0,0,1,1.26-3.39,4,4,0,0,1,3.12-1.41h5.52a.8.8,0,0,0,.9-.9q0-.78-1.14-.78h-6.12a6.91,6.91,0,0,0-5.16,2.24,7.38,7.38,0,0,0-2.16,5.3,5.46,5.46,0,0,0,2.15,4.55,15.83,15.83,0,0,0,5.14,2.21q5.25,1.56,5.25,4.79a5.48,5.48,0,0,1-1.25,3.53,3.84,3.84,0,0,1-3.1,1.56h-6.39a.88.88,0,0,0-1,1,.82.82,0,0,0,1,.93h6.6a8.66,8.66,0,0,0,5.58-2,6.13,6.13,0,0,0,2.46-5A7,7,0,0,0,196.72,134.11Z"/><path class="cls-4" d="M18.16,163.21V17.73H190V81.85a1,1,0,0,0,1,1h2.26a.89.89,0,0,0,1-1v-9.9q0-1.56,1.68-1.56H206a1.1,1.1,0,0,1,.93.37v74.91a1,1,0,0,0,1,1h2.3a1,1,0,0,0,1-1V57.92a1.18,1.18,0,0,0-.35-.84.91.91,0,0,0-.59-.29h-2.17a1.15,1.15,0,0,0-.32.06h-.11a1.24,1.24,0,0,0-.74,1.08V68.37a2.85,2.85,0,0,1-.81.07H195.38q-1.14,0-1.14-1.33V16.3a2,2,0,0,0-2-2H15.61a2,2,0,0,0-2,2V166.55a2,2,0,0,0,1.87,2H75.2v-5.33Z"/><path class="cls-1" d="M227,14.21h-1.65a1.47,1.47,0,0,0-1.47,1.47h0V163.21H122.75v5.33H226.69a1.28,1.28,0,0,0,.81-.3,2,2,0,0,0,1-1.7V15.69A1.47,1.47,0,0,0,227,14.21Z"/></g></g><path class="cls-4" d="M208.24,14.21h3V145.59a1.13,1.13,0,0,1-1.13,1.13h-2.06a1.13,1.13,0,0,1-1.13-1.13V15.51C207,14.58,207.31,14.21,208.24,14.21Z"/><path class="cls-4" d="M212,135.42"/><path class="cls-4" d="M223.65,136.25"/><path class="cls-4" d="M215,135.88"/><path class="cls-4" d="M223.9,132.32v-1.2a1.52,1.52,0,0,1-.5.88,1.48,1.48,0,0,1-.64.32H212.19a1.32,1.32,0,0,1-.5-.17,1.29,1.29,0,0,1-.51-.75v.92h-1.94v2h1.94l0,1.28a2,2,0,0,1,.65-.93,1.89,1.89,0,0,1,.71-.34h10.55a1.27,1.27,0,0,1,.38.25,2.05,2.05,0,0,1,.45.78v-3Z"/></svg>