<svg xmlns="http://www.w3.org/2000/svg" viewBox="0 0 266.38 144.55"><defs><style>.cls-1{fill:#00d1d0;}.cls-2{fill:#e79e81;}.cls-3{fill:#e5786a;}.cls-4,.cls-6{fill:#c37a66;}.cls-5{fill:#be6f5a;}.cls-5,.cls-6{stroke:#ad7761;}.cls-5,.cls-6,.cls-7,.cls-8{stroke-miterlimit:10;stroke-width:0.28px;}.cls-7{fill:#00d6db;}.cls-7,.cls-8{stroke:#00c6c1;}.cls-8{fill:#0dd;}</style></defs><title>Asset 20</title><g id="Layer_2" data-name="Layer 2"><g id="Layer_3" data-name="Layer 3"><path class="cls-1" d="M15.48,3H259a0,0,0,0,1,0,0v76.4a0,0,0,0,1,0,0H0a0,0,0,0,1,0,0V18.5A15.48,15.48,0,0,1,15.48,3Z"/><line class="cls-2" x1="213.13" y1="132.45" x2="212.38" y2="132.45"/><path class="cls-2" d="M266.38,144.38a.17.17,0,0,1-.17.17"/><line class="cls-2" x1="212.38" y1="140.39" x2="212.38" y2="139.64"/></g><g id="Layer_1-2" data-name="Layer 1"><path class="cls-3" d="M203.71,77.12"/><path class="cls-3" d="M245.71,87.53"/><path class="cls-4" d="M0,62.28H259a0,0,0,0,1,0,0v52.39A13.36,13.36,0,0,1,245.69,128H0a0,0,0,0,1,0,0V62.28A0,0,0,0,1,0,62.28Z"/><path class="cls-5" d="M15.13,44.26V17H30.34v3.76H19.56v6.83H30.34v3.89H19.56v8.81H30.34v4Z"/><path class="cls-5" d="M41.14,44.26V15.92L58.46,32.59q.71.71,1.43,1.51t1.53,1.81V17h4.1V45.32l-17.67-17q-.71-.69-1.37-1.45t-1.26-1.6v19Z"/><path class="cls-5" d="M92.6,30.29h10.8q0,.28,0,.78.06,1.32.06,1.79,0,5.75-3.3,8.94T90.89,45a16.91,16.91,0,0,1-6-1,12.68,12.68,0,0,1-4.6-3,13.53,13.53,0,0,1-3-4.64,15.61,15.61,0,0,1-1-5.7A15.09,15.09,0,0,1,77.36,25a13.18,13.18,0,0,1,3.12-4.6,13.44,13.44,0,0,1,4.67-3,15.94,15.94,0,0,1,5.74-1,13.6,13.6,0,0,1,5.76,1.17,12.84,12.84,0,0,1,4.53,3.59l-3.24,2.44a9,9,0,0,0-3.11-2.38A9.31,9.31,0,0,0,91,20.43a9.72,9.72,0,0,0-7.23,2.84,10.06,10.06,0,0,0-2.8,7.38,10.29,10.29,0,0,0,2.8,7.5A9.7,9.7,0,0,0,91,41a9.22,9.22,0,0,0,6-1.77,5.88,5.88,0,0,0,2.18-4.82V34H92.6Z"/><path class="cls-5" d="M113.85,44.26V17h4.43v23.3h9.91v4Z"/><path class="cls-5" d="M137.58,44.26V17H142V44.26Z"/><path class="cls-5" d="M152.53,38.81l3.54-1.64A4.88,4.88,0,0,0,157.92,40a5.75,5.75,0,0,0,3.43,1,4.38,4.38,0,0,0,3.14-1.1,3.85,3.85,0,0,0,1.16-2.94q0-2.4-4-4.28l-.86-.41q-4.51-2.2-6-4a6.52,6.52,0,0,1-1.5-4.35,7,7,0,0,1,2.26-5.4,8.45,8.45,0,0,1,5.93-2.07,10,10,0,0,1,5,1.16,6.13,6.13,0,0,1,2.81,3.34l-3.46,1.79a5.77,5.77,0,0,0-1.8-1.88,4.22,4.22,0,0,0-2.24-.6,4.13,4.13,0,0,0-2.84.93,3.17,3.17,0,0,0-1.05,2.5q0,2.46,4.62,4.58l.56.26a16.43,16.43,0,0,1,5.55,3.64,6.63,6.63,0,0,1,1.51,4.44,8,8,0,0,1-2.44,6.15A9.26,9.26,0,0,1,161.16,45a9.54,9.54,0,0,1-5.71-1.6A7.49,7.49,0,0,1,152.53,38.81Z"/><path class="cls-5" d="M180.75,44.26V17h4.43V27.05h13.41V17H203V44.26h-4.43V31H185.18V44.26Z"/><path class="cls-6" d="M250.25,5.33,213.91,38.75A11.69,11.69,0,0,0,211,42.16c-1.67,3.54,2.41,6.21,4.76,8.4,1.05,1,1.27.91,2,.64a8.1,8.1,0,0,0,2.9-1.67c5.2-5.1,10.17-10.43,15.14-15.76l20.63-22.13ZM259,9.49c.7-.74,1.44-1.41,2.06-2.18a3.72,3.72,0,0,0,0-4.73A11.17,11.17,0,0,0,259.5,1a3.55,3.55,0,0,0-4.12-.28,8,8,0,0,0-1.75,1.48l-.89.94Zm-49.84,39c-.57.57-1.11,1.1-1.64,1.65a3.09,3.09,0,0,0-1.06,2.42,2.57,2.57,0,0,0,2,2.46,2.74,2.74,0,0,0,2.66-.73c.54-.53,1.09-1,1.64-1.58l.26-.27Z"/><path class="cls-6" d="M250.27,5.27l6.28,6.37-.2.22-16.9,18C233.45,36.23,227,43,221,49.39a7.78,7.78,0,0,1-4.12,2.12c-.17.19-4.81-3.63-6.48-6.19a.33.33,0,0,1-.09-.21,6.28,6.28,0,0,1,.81-3.32,7.11,7.11,0,0,1,1.3-1.65L247.84,7.51Z"/><path class="cls-6" d="M259,9.49l-6.31-6.4.89-.94A8,8,0,0,1,255.38.67,3.55,3.55,0,0,1,259.5,1a11.17,11.17,0,0,1,1.62,1.63,3.72,3.72,0,0,1,0,4.73C260.48,8.08,259.74,8.75,259,9.49Z"/><path class="cls-6" d="M209.2,48.5l3.85,3.94-.26.27c-.55.53-1.1,1-1.64,1.58a2.74,2.74,0,0,1-2.66.73,2.57,2.57,0,0,1-2-2.46,3.09,3.09,0,0,1,1.06-2.42C208.09,49.59,208.64,49.06,209.2,48.5Z"/></g><g id="Layer_2-2" data-name="Layer 2"><path class="cls-7" d="M52.27,85.15a4,4,0,0,1-2.53,4,12,12,0,0,1-3.82.75c-.37,0-.55.18-.55.41q0-.07.75,2a53.46,53.46,0,0,1,3.21,17.89,45.81,45.81,0,0,1-.27,5.05A11.69,11.69,0,0,1,48,118a5.4,5.4,0,0,1-2.18,2.46,1,1,0,0,1-.55.14,4.33,4.33,0,0,1-2.53-1.13,4.28,4.28,0,0,1-1.64-1.95,37.32,37.32,0,0,1-1-8.88q0-2.94.48-9t.48-9.11q0-.21-1.09-.68A19,19,0,0,1,38.14,89a2.35,2.35,0,0,1-1.23-2.12A3.22,3.22,0,0,1,37,86a1.55,1.55,0,0,1,1.37-1.26q1-.1,1.91-.1a1.09,1.09,0,0,0,.89-.75q.41-5.73.82-11.54.68-6.42,3.62-10.1a2,2,0,0,1,1.5-.61,3,3,0,0,1,1.74.55q.78.55.85,1a7.3,7.3,0,0,1,.21,1.78,21.06,21.06,0,0,1-1.37,6.14,36.35,36.35,0,0,0-1.43,6.21q-.82,5.33-1,6.28-.07.41,1.57.41.34-.07,1.57-.41a5.43,5.43,0,0,1,1.57-.34Q52.2,83.23,52.27,85.15Zm-6.62,30.25a24,24,0,0,0,1-7.31,59.69,59.69,0,0,0-1.37-11.27q-.41-1.16-.68-1.16a.12.12,0,0,0-.14.14,55.09,55.09,0,0,0-.89,10.31,65.58,65.58,0,0,0,.41,7.37,3.52,3.52,0,0,0,.55,1.4q.48.78.82.78C45.51,115.67,45.6,115.58,45.65,115.39Z"/><path class="cls-8" d="M68.52,101.81q.34.21-.68,1.74A4.32,4.32,0,0,1,66,105.36a3.57,3.57,0,0,1-.68.07,4.24,4.24,0,0,1-2.32-.75c-.77-.5-1.18-.93-1.23-1.3a18.6,18.6,0,0,1-.55-5q0-1.5.21-4.64a15.19,15.19,0,0,0,0-3,1.91,1.91,0,0,1-1.37-2,1.58,1.58,0,0,1,.48-1.16Q65.17,83,66.88,83a.32.32,0,0,1,.34.2,6.06,6.06,0,0,1,.34,2,17,17,0,0,1-.48,3.28,17,17,0,0,0-.48,3.35,20.6,20.6,0,0,0-.48,4.1Q66.13,99.89,68.52,101.81Zm0-28.47a3.34,3.34,0,0,1-1,3.21,2.45,2.45,0,0,1-1.57.61,3.26,3.26,0,0,1-1.71-.55q-1.16-.68-1.16-3.07a2.47,2.47,0,0,1,1.19-1.37,3.51,3.51,0,0,1,1.81-.61A2.47,2.47,0,0,1,68.52,73.34Z"/><path class="cls-8" d="M102.25,101.81a2.64,2.64,0,0,1-.68,1.84,4.84,4.84,0,0,1-1.33,1.43,2.1,2.1,0,0,1-1,.27A5.76,5.76,0,0,1,96,104a6.24,6.24,0,0,1-1.91-4.92,36.34,36.34,0,0,1,.34-3.69,19.29,19.29,0,0,0,.07-3.55.56.56,0,0,0-.61-.55,2.36,2.36,0,0,0-1.3.54q-2.39,1.83-5.05,6.63-2.8,5.07-4.78,6.76a.46.46,0,0,1-.34.14,1.37,1.37,0,0,1-.89-.44,1.19,1.19,0,0,1-.48-.78,52.26,52.26,0,0,1-.27-6.58A25.41,25.41,0,0,0,80.19,91q-.14-.41-1.09-.95t-1-1a1.18,1.18,0,0,1,.14-.54,6.38,6.38,0,0,1,2.08-2,5.53,5.53,0,0,1,2.49-1.22q2.66.34,2.66,4.1v1.91a5.86,5.86,0,0,0,.55,2.94.4.4,0,0,0,.34.21q.62,0,1-.89A49.81,49.81,0,0,0,91.19,89q2.59-3.41,3.69-4.71a3,3,0,0,1,2.46-1.09,2.69,2.69,0,0,1,2.87,1.91A40.38,40.38,0,0,1,99.79,91a55.9,55.9,0,0,0-.48,5.8,18,18,0,0,0,.2,2.8q.21.68,1.33,1.09A2.12,2.12,0,0,1,102.25,101.81Z"/><path class="cls-8" d="M118.29,101.81q.34.21-.68,1.74a4.32,4.32,0,0,1-1.84,1.81,3.57,3.57,0,0,1-.68.07,4.24,4.24,0,0,1-2.32-.75c-.77-.5-1.18-.93-1.23-1.3a18.6,18.6,0,0,1-.55-5q0-1.5.21-4.64a15.19,15.19,0,0,0,0-3,1.91,1.91,0,0,1-1.37-2,1.58,1.58,0,0,1,.48-1.16Q114.95,83,116.65,83a.32.32,0,0,1,.34.2,6.06,6.06,0,0,1,.34,2,17,17,0,0,1-.48,3.28,17,17,0,0,0-.48,3.35,20.6,20.6,0,0,0-.48,4.1Q115.9,99.89,118.29,101.81Zm0-28.47a3.34,3.34,0,0,1-1,3.21,2.45,2.45,0,0,1-1.57.61,3.26,3.26,0,0,1-1.71-.55q-1.16-.68-1.16-3.07A2.47,2.47,0,0,1,114,72.17a3.51,3.51,0,0,1,1.81-.61A2.47,2.47,0,0,1,118.29,73.34Z"/><path class="cls-8" d="M145,96.28a6,6,0,0,1,.14,1.3,9.2,9.2,0,0,1-.89,3.55q-1.3,3.07-1.37,3.28a22.8,22.8,0,0,1-2.66,3.28q-2.46,2.59-3.82,2.46a5.7,5.7,0,0,1-4-1.84,7.34,7.34,0,0,1-1.64-5.05,33.34,33.34,0,0,1,.41-4.23l.65-.38a1.74,1.74,0,0,1,.79-.31.62.62,0,0,1,.55.41,6.36,6.36,0,0,1,.34,2.25c0,.27,0,.68-.07,1.23v1.23q0,2.93,2.18,3.76,2.46-.14,3.55-4.17c0-.32,0-.89.14-1.71a18.44,18.44,0,0,0,.14-1.84q0-2.39-1.71-2.94a11.07,11.07,0,0,0-4-.89,13.63,13.63,0,0,1-3.89-.75,3.55,3.55,0,0,1-2.18-3.07q-.07-5.33,8.13-9.7a13.48,13.48,0,0,0,1.78-.24,13.22,13.22,0,0,1,2.12-.24,2.41,2.41,0,0,1,2.66,1.78q.14,3.35-1.64,4.51a2.35,2.35,0,0,1-1.64-1,9.86,9.86,0,0,0-4.92,3.14,1.35,1.35,0,0,0-.14.61,1.76,1.76,0,0,0,1.23,1.64q2.73.55,5.39,1.16A7.16,7.16,0,0,1,145,96.28Z"/><path class="cls-4" d="M169.9,104.43,172,99.35c2.53,1.7,4.13,3,6.22,3.51a9.22,9.22,0,0,0,3.88.08c3.11-.6,6.18-2.26,6.17-4.75,0-1.49-.79-2.54-3.1-5.31-1.85-2.22-5.12-6.13-4.11-9.29.77-2.42,3.78-3.62,5.13-4.15,2.05-.82,2.56-.34,4.92-1,3.24-.9,6.2-1.66,6.67-3.58.3-1.23-1.11-2.48-3.53-4.62-3.44-3-5.05-7.12-4.94-7.77a4.92,4.92,0,0,1,.44-1.5c1.75-2.8,4-4.88,10.24-5.64.58-.07,2.66.09,4.09-.94a4,4,0,0,0,1.29-1.66A3.65,3.65,0,0,0,206,55a3.86,3.86,0,0,0,3.25,1.38,8.51,8.51,0,0,1-3.42,2.68c-1.93.75-3.29.37-5.92.3s-7,.62-7.33,2c-.45,1.82.92,3.24,4.17,6.33,3.43,3.27,3.37,4.44,3.67,5.83.69,3.19-4.24,7.35-9.58,8.5-3.19.69-6.39,1.13-6.75,2.66-.17.7.85,1.64,3.73,4.88,3.91,4.41,5.49,5.62,5.6,7.84a6.31,6.31,0,0,1-.59,2.89c-1.58,3.58-9.67,5.86-10.74,5.87a42.44,42.44,0,0,1-9.06-.89C172.62,105.2,170.12,104.82,169.9,104.43Z"/><path class="cls-7" d="M190.64,83.49C196,82.33,201,78.16,200.26,75c-.3-1.4-.26-2.54-3.68-5.85a13.23,13.23,0,0,1-4-6.85h-3.2a6.06,6.06,0,0,0,0,.62,5.84,5.84,0,0,0,0,.67c.2,3,4.72,8.11,4.72,8.11,3.14,3.54,3.73,3.86,3.55,4.63-.47,1.93-3.44,2.69-6.69,3.59-2.36.66-2.88.19-4.94,1-1.35.54-4.38,1.74-5.15,4.16-1,3.17,2.27,7.09,4.13,9.31,2.32,2.78,3.11,3.83,3.11,5.32,0,2.49-3.78,4.24-6.19,4.76a10.41,10.41,0,0,1-3.85,0c-1.46-.2-4.41-.59-5.69-2.69a4.62,4.62,0,0,1-.56-1.37,14.78,14.78,0,0,1-.4-3.57q0-.82.34-5.39a23,23,0,0,0-.07-5.39,3,3,0,0,0-2.87-2,2,2,0,0,0-1,.27,19.78,19.78,0,0,0-4.64,5.6,22.77,22.77,0,0,1-4.71,5.8q-.82.62-1.3-.41a20.25,20.25,0,0,1-.21-2.87q0-4.44,2.87-13.45,2.66-8.67,2.46-13.59a2,2,0,0,0-.79-1.3,2.28,2.28,0,0,0-1.54-.75q-.75,0-1.09,1-3.35,6.55-4.64,16.8-.27,2-1.37,18,.07.41.21,4a5.87,5.87,0,0,0,1.16,3.48,1.57,1.57,0,0,0,.89.27,1.68,1.68,0,0,0,1.37-.68q1.64-3.41,3.28-6.76a23.89,23.89,0,0,1,4.44-6.35,1.45,1.45,0,0,1,1.3-.82,1.21,1.21,0,0,1,1.3.89,31.18,31.18,0,0,1-.07,3.41,32.79,32.79,0,0,0-.14,3.48,14,14,0,0,0,.84,4.25,7.23,7.23,0,0,0,1.12,1.07,9.51,9.51,0,0,0,4.35,1.62,33.55,33.55,0,0,0,4.47.5,35.15,35.15,0,0,0,4.38.13c1-.07,8.73-.74,11-5.9a6.31,6.31,0,0,0,.59-2.9c-.11-2.23-1.7-3.44-5.62-7.86-2.89-3.25-3.91-4.19-3.74-4.89C184.23,84.62,187.44,84.17,190.64,83.49Z"/></g></g></svg>