<?xml version="1.0" encoding="utf-8"?>
<!-- Generator: Adobe Illustrator 21.0.0, SVG Export Plug-In . SVG Version: 6.00 Build 0)  -->
<svg version="1.1" id="Layer_1_copy_2" xmlns="http://www.w3.org/2000/svg" xmlns:xlink="http://www.w3.org/1999/xlink" x="0px"
	 y="0px" viewBox="0 0 242.7 183.3" style="enable-background:new 0 0 242.7 183.3;" xml:space="preserve">
<style type="text/css">
	.st0{fill:#00CCCC;}
	.st1{fill:none;}
	.st2{fill:#FFFFFF;}
	.st3{fill:#C37A66;}
	.st4{fill:#E49373;}
</style>
<title>EF_logo_copper_pen1</title>
<path class="st0" d="M207,17.7v-2.5c0-0.6,0.4-1,1-1h19.1c0.6,0,1,0.4,1,1v1.5c0,0.6-0.4,1-1,1H207z"/>
<g id="Layer_2">
	<g id="Layer_2-2">
		<rect class="st1" width="242.7" height="183.3"/>
		<path class="st0" d="M224.1,121.7c-0.1-0.5,0.3-0.9,0.8-1c0,0,0,0,0,0h2.1c0.7,0,1.1,0.3,1.1,1v24c0,0.7-0.4,1-1.1,1h-1.9
			c-0.5,0.1-0.9-0.3-1-0.8c0-0.1,0-0.1,0-0.2v-10.4c0-0.7-0.4-1-1.1-1h-10.1c-1.1,0-1.7,0.5-1.7,1.6v9.9c0.1,0.5-0.3,0.9-0.8,1
			c0,0,0,0,0,0h-2.1c-0.5,0.1-0.9-0.3-1-0.8c0-0.1,0-0.1,0-0.2v-40.6c0-0.7,0.3-1.1,1-1.1h1.9c0.7,0,1,0.4,1,1.1V131
			c0,0.9,0.4,1.3,1.1,1.3h10.8c0.3,0,0.6,0,0.9-0.1c0.1-0.2,0.2-0.5,0.1-0.8L224.1,121.7z"/>
		<path class="st2" d="M80.6,169.1L80.6,169.1l0.1,3.5c0,0.3,0.2,0.6,0.5,0.6c0.1,0,0.2,0,0.3,0l2.3-0.8c0.2,0,0.3-0.2,0.2-0.3l0,0
			c0-1.4,0-2.8-0.1-4.2v-7.2c0-0.1-0.1-0.2-0.2-0.2c0,0,0,0,0,0l0,0l-1.1-0.4l-1.3-0.4c-0.1,0-0.3,0-0.4,0c-0.2,0.1-0.3,0.4-0.3,0.6
			v2.1c0,1,0.1,2,0.1,3L80.6,169.1L80.6,169.1z"/>
		<path class="st3" d="M117.8,167c-0.1,0.8,0.4,1.6,0,2.2c-0.3,0.3-0.7,0.5-1.1,0.5c-7.1,1.4-13.8,4-20,7.7
			c-0.4,0.3-0.9,0.4-1.3,0.4c-0.3-0.1-0.5-0.2-0.7-0.4c-1.3-1-2.6-2-3.8-3.1c-1.4-1.1-2.3-2.8-2.4-4.6c-0.1-2.4-0.1-4.9-0.1-7.3
			c-0.2-1.3,0.4-2.6,1.5-3.3l4.3-3.7c0.2-0.2,0.5-0.4,0.8-0.5c0.6-0.1,1.2,0.1,1.7,0.4c6.4,3.5,13.3,5.9,20.5,7
			c0.3,0,0.6,0.1,0.7,0.4c0.1,0.2,0.1,0.3,0.1,0.5l-0.1,1.8l-10,0.2c-0.6,0.1-1.1,0-1.7-0.2c-0.4-0.3-0.9-0.6-1.2-1
			c-1.3-0.9-3.1-0.7-4,0.6c-0.9,1.3-0.7,3.1,0.6,4c0.9,0.7,2.2,0.8,3.2,0.2c0.6-0.5,1.2-0.9,1.8-1.3c0.5-0.2,1.1-0.3,1.6-0.2H117.8z
			"/>
		<path class="st0" d="M80.7,169.1v-3.6c0-1,0-2-0.1-3v-2.1c0-0.3,0.1-0.5,0.3-0.6c0.1,0,0.3,0,0.4,0l1.3,0.4l1.1,0.4
			c0.1,0,0.2,0.1,0.2,0.2c0,0,0,0,0,0l0,0v7.2c0,1.4,0,2.8,0.1,4.2c0,0.2-0.1,0.3-0.2,0.3c0,0,0,0,0,0l0,0l-2.3,0.8
			c-0.3,0.1-0.6,0-0.8-0.3c0-0.1-0.1-0.2,0-0.3v-3.5L80.7,169.1z"/>
		<path class="st3" d="M57.6,80.3H41.9c-0.4,0-0.8,0-1.3-0.1c-0.4,0-0.7-0.4-0.7-0.8V65.2c0-0.7,0.7-1,1.9-1h14
			c0.9,0,1.4-0.3,1.4-0.8v-1c0-0.5-0.6-0.7-1.7-0.7H41.5c-1,0-1.5-0.4-1.5-1.4V47.3c-0.1-0.4,0.2-0.8,0.6-0.8c0,0,0,0,0,0l0,0
			c0.4-0.1,0.8-0.1,1.3-0.1h15c0.9,0,1.4-0.2,1.4-0.7v-1c0-0.5-0.6-0.7-1.7-0.7H36.7c-0.5-0.1-0.9,0.3-1,0.8c0,0.1,0,0.1,0,0.2v37
			c-0.1,0.5,0.3,0.9,0.8,1c0,0,0,0,0,0h20.7c1.2,0,1.7-0.2,1.7-0.7v-1.1C58.9,80.6,58.5,80.3,57.6,80.3z"/>
		<path class="st3" d="M87.1,56.8c-0.7,0-1,0.6-1,1.8v14.8c0,0.8-0.1,1.1-0.3,1.1c-0.2,0-0.4-0.2-0.7-0.7l-10-15.2
			c-0.7-1.1-1.9-1.9-3.2-1.9c-0.8,0-1.6,0.3-2.1,0.9c-0.6,0.6-0.9,1.5-0.9,2.4v21.5c0,0.9,0.3,1.3,0.9,1.3c0.7,0,1.1-0.4,1.1-1.3
			V61.5c0-0.9,0.2-1.3,0.6-1.3c0.4,0,0.8,0.4,1.2,1.1l13.4,20.9c0.2,0.3,0.6,0.5,1,0.6c0.7,0,1.1-0.6,1.1-1.7V58.5
			C88,57.4,87.7,56.8,87.1,56.8z"/>
		<path class="st3" d="M120.1,70.6h-1.9c-0.6,0-1,0.4-1.1,0.9c0,0,0,0.1,0,0.1v6.2c0,0.7-0.2,1.3-0.7,1.8c-1.4,1.3-3.3,1.9-5.3,1.9
			c-2.3,0-4.3-1.2-6-3.5c-1.7-2.5-2.6-5.5-2.5-8.5c-0.1-3.1,0.8-6.1,2.5-8.6c1.6-2.3,3.6-3.5,6-3.5s4.5,1.3,6.5,4
			c0.2,0.4,0.4,0.5,0.6,0.5l0.5-0.3c0.5-0.1,0.7-0.6,0.6-1.1c0-0.1-0.1-0.2-0.1-0.3c-0.6-1.1-1.5-2-2.6-2.7
			c-1.6-1.1-3.6-1.7-5.6-1.7c-3.4,0-6.6,1.4-8.7,4c-4.8,5.5-4.8,13.8,0,19.3c2.2,2.6,5.4,4,8.8,4c1.5,0,3-0.2,4.5-0.8
			c1-0.4,1.5-0.2,1.5,0.5v9.4c0,0.7,0.4,1,1.1,1h1.9c0.5,0.1,0.9-0.3,1-0.8c0-0.1,0-0.1,0-0.2V71.7C121.1,71,120.8,70.6,120.1,70.6z
			"/>
		<path class="st3" d="M134.7,40.1h-1.9c-0.7,0-1,0.4-1,1.1v38.4c0,0.9,0.3,1.7,0.8,2.3c0.5,0.7,1.4,1,2.2,1h4.9
			c0.3,0,0.4-0.3,0.4-1c0-0.7-0.2-1-0.7-0.9h-2.4c-0.9,0-1.4-0.6-1.4-1.9v-38c0-0.5-0.3-1-0.9-1C134.9,40.1,134.8,40.1,134.7,40.1
			L134.7,40.1z"/>
		<path class="st3" d="M148.5,81.8c-0.1,0.5,0.3,0.9,0.8,1c0.1,0,0.2,0,0.2,0h2c0.5,0.1,1-0.3,1-0.8c0-0.1,0-0.1,0-0.2v-24
			c0.1-0.5-0.3-1-0.8-1.1c-0.1,0-0.2,0-0.3,0h-2c-0.5-0.1-1,0.3-1.1,0.8c0,0.1,0,0.2,0,0.3V81.8z"/>
		<path class="st0" d="M150.6,52.9c1.1,0,2-0.9,2-2c0-1.1-0.9-2-2-2c-0.6,0-1.1,0.2-1.5,0.6c-0.8,0.8-0.8,2.1,0,2.9
			C149.5,52.7,150,52.9,150.6,52.9z"/>
		<path class="st3" d="M171.5,58.4h5.5c0.4,0.1,0.8-0.2,0.9-0.7c0-0.1,0-0.1,0-0.2c0-0.5-0.4-0.8-1.1-0.8h-6.1c-2,0-3.8,0.8-5.1,2.3
			c-1.4,1.4-2.2,3.3-2.2,5.3c-0.1,1.8,0.7,3.5,2.1,4.6c1.6,1,3.3,1.8,5.1,2.2c3.5,1,5.3,2.6,5.3,4.8c0,1.3-0.4,2.5-1.3,3.5
			c-0.7,1-1.9,1.6-3.1,1.6h-6.4c-0.5-0.1-0.9,0.3-1,0.7c0,0.1,0,0.2,0,0.3c-0.1,0.4,0.2,0.9,0.7,0.9c0.1,0,0.2,0,0.3,0h6.6
			c2,0,4-0.7,5.6-2c1.6-1.2,2.5-3,2.5-5c0.1-2.1-0.7-4.1-2.2-5.6c-1.5-1.2-3.3-2-5.2-2.4c-3.5-1-5.3-2.6-5.3-4.7
			c0-1.2,0.4-2.5,1.3-3.4C169.1,58.9,170.3,58.4,171.5,58.4z"/>
		<path class="st0" d="M114.4,104.1c-0.8-0.3-1.7-0.4-2.6-0.3c-4.7,0-7.1,3.2-7.1,9.5v32.4l0,0c-0.1,0.5,0.3,0.9,0.8,1c0,0,0,0,0,0
			h2.1c0.5,0.1,0.9-0.3,1-0.8c0-0.1,0-0.1,0-0.2l0,0v-21.5c-0.1-0.8,0.5-1.5,1.3-1.6c0.1,0,0.3,0,0.4,0h2.5c0.7,0,1.1-0.3,1.1-0.9
			c0.1-0.5-0.3-0.9-0.8-1c0,0,0,0,0,0H112c-0.5,0-1.2-0.1-2.3-0.1c-0.8,0-1.1-0.4-1.1-1.3v-9.1c-0.1-1.2,0.3-2.5,0.9-3.5
			c0.5-0.8,1.4-1.4,2.3-1.4c0.7,0,1.3,0,2,0.2c0.7,0.2,1.1,0.1,1.2-0.2c0.1-0.2,0.1-0.3,0.1-0.5C115.3,104.5,115,104.3,114.4,104.1z
			"/>
		<path class="st3" d="M124.4,112.6c-0.6,0-1.1,0.2-1.5,0.6c-0.8,0.8-0.8,2.1,0,2.9c0.4,0.4,0.9,0.6,1.5,0.6c1.1,0,2-0.9,2-2
			S125.5,112.6,124.4,112.6z"/>
		<path class="st0" d="M125.4,120.6h-2c-0.5-0.1-1,0.3-1.1,0.8c0,0.1,0,0.2,0,0.3v24c-0.1,0.5,0.3,0.9,0.8,1c0.1,0,0.2,0,0.2,0h2
			c0.5,0.1,1-0.3,1-0.8c0-0.1,0-0.1,0-0.2v-24c0.1-0.5-0.3-1-0.8-1.1C125.6,120.5,125.5,120.5,125.4,120.6z"/>
		<path class="st0" d="M155.7,120.6c-0.7,0-1,0.6-1,1.8v14.8c0,0.8-0.1,1.1-0.3,1.1c-0.2,0-0.4-0.2-0.7-0.7l-10-15.2
			c-0.7-1.1-1.9-1.9-3.2-1.9c-0.8,0-1.6,0.3-2.1,0.9c-0.6,0.6-0.9,1.5-0.9,2.4v21.5c0,0.9,0.3,1.3,0.9,1.3c0.7,0,1.1-0.4,1.1-1.3
			v-19.9c0-0.9,0.2-1.3,0.6-1.3s0.8,0.4,1.2,1.1l13.4,20.9c0.2,0.3,0.6,0.5,1,0.6c0.7,0,1.1-0.6,1.1-1.7v-22.5
			C156.6,121.2,156.3,120.6,155.7,120.6z"/>
		<path class="st0" d="M170.6,120.6h-2c-0.5-0.1-1,0.3-1.1,0.8c0,0.1,0,0.2,0,0.3v24c-0.1,0.5,0.3,0.9,0.8,1c0.1,0,0.2,0,0.2,0h2
			c0.5,0.1,1-0.3,1-0.8c0-0.1,0-0.1,0-0.2v-24c0.1-0.5-0.3-1-0.8-1.1C170.8,120.5,170.7,120.5,170.6,120.6z"/>
		<path class="st3" d="M169.7,112.6c-0.6,0-1.1,0.2-1.5,0.6c-0.8,0.8-0.8,2.1,0,2.9c0.4,0.4,0.9,0.6,1.5,0.6c1.1,0,2-0.9,2-2
			S170.8,112.6,169.7,112.6z"/>
		<path class="st0" d="M196.7,134.1c-1.5-1.2-3.3-2-5.2-2.4c-3.5-1-5.3-2.6-5.3-4.7c0-1.2,0.4-2.5,1.3-3.4c0.8-0.9,1.9-1.4,3.1-1.4
			h5.5c0.4,0.1,0.8-0.2,0.9-0.7c0-0.1,0-0.1,0-0.2c0-0.5-0.4-0.8-1.1-0.8h-6.1c-2,0-3.8,0.8-5.2,2.2c-1.4,1.4-2.2,3.3-2.2,5.3
			c-0.1,1.8,0.7,3.5,2.1,4.6c1.6,1,3.3,1.8,5.1,2.2c3.5,1,5.3,2.6,5.3,4.8c0,1.3-0.4,2.5-1.3,3.5c-0.7,1-1.9,1.6-3.1,1.6h-6.4
			c-0.5-0.1-0.9,0.3-1,0.7c0,0.1,0,0.2,0,0.3c-0.1,0.4,0.2,0.9,0.7,0.9c0.1,0,0.2,0,0.3,0h6.6c2,0,4-0.7,5.6-2c1.6-1.2,2.5-3,2.5-5
			C199,137.6,198.2,135.5,196.7,134.1z"/>
		<path class="st3" d="M18.2,163.2V17.7H190v64.1c0,0.6,0.4,1,1,1h2.3c0.5,0.1,0.9-0.3,1-0.8c0-0.1,0-0.2,0-0.2v-9.9
			c0-1,0.6-1.6,1.7-1.6H206c0.4,0,0.7,0.1,0.9,0.4v74.9c0,0.6,0.4,1,1,1h2.3c0.6,0,1-0.4,1-1V57.9c0-0.3-0.1-0.6-0.4-0.8
			c-0.2-0.2-0.4-0.3-0.6-0.3h-2.2c-0.1,0-0.2,0-0.3,0.1h-0.1c-0.4,0.2-0.7,0.6-0.7,1.1v10.4c-0.3,0.1-0.5,0.1-0.8,0.1h-10.8
			c-0.8,0-1.1-0.4-1.1-1.3V16.3c0-1.1-0.9-2-2-2H15.6c-1.1,0-2,0.9-2,2v150.3c0,1.1,0.8,1.9,1.9,2h59.7v-5.3L18.2,163.2z"/>
		<path class="st0" d="M227,14.2h-1.6c-0.8,0-1.5,0.7-1.5,1.5v0l0,0v147.5H122.8v5.3h103.9c0.3,0,0.6-0.1,0.8-0.3c0.6-0.4,1-1,1-1.7
			V15.7C228.5,14.9,227.9,14.2,227,14.2C227,14.2,227,14.2,227,14.2z"/>
	</g>
</g>
<path class="st3" d="M208.2,14.2h3v131.4c0,0.6-0.5,1.1-1.1,1.1c0,0,0,0,0,0h-2.1c-0.6,0-1.1-0.5-1.1-1.1c0,0,0,0,0,0l0,0V15.5
	C207,14.6,207.3,14.2,208.2,14.2z"/>
<path class="st4" d="M212,135.4"/>
<path class="st4" d="M223.6,136.3"/>
<path class="st4" d="M215,135.9"/>
<path class="st3" d="M223.9,132.3v-1.2c-0.1,0.3-0.2,0.7-0.5,0.9c-0.2,0.2-0.4,0.3-0.6,0.3h-10.6c-0.2,0-0.3-0.1-0.5-0.2
	c-0.3-0.2-0.4-0.4-0.5-0.8v0.9h-1.9v2h1.9v1.3c0.1-0.4,0.3-0.7,0.6-0.9c0.2-0.2,0.5-0.3,0.7-0.3h10.6c0.1,0.1,0.3,0.1,0.4,0.3
	c0.2,0.2,0.4,0.5,0.4,0.8L223.9,132.3L223.9,132.3z"/>
</svg>
