<svg xmlns="http://www.w3.org/2000/svg" viewBox="0 0 269.33 145.44"><defs><style>.cls-1{fill:#0cc;}.cls-2,.cls-4{fill:#e79e81;}.cls-3{fill:#e5786a;}.cls-4{stroke:#e79e81;}.cls-4,.cls-6,.cls-7{stroke-miterlimit:10;}.cls-4,.cls-6{stroke-width:0.28px;}.cls-5{font-size:36px;font-family:FuturaBT-Medium, Futura Md BT;letter-spacing:0.15em;}.cls-5,.cls-6,.cls-7,.cls-8{fill:#532411;}.cls-6,.cls-7{stroke:#271812;}.cls-7{stroke-width:0.28px;}</style></defs><title>Asset 7</title><g id="Layer_2" data-name="Layer 2"><g id="Layer_3" data-name="Layer 3"><path class="cls-1" d="M18.22,3.13H262a0,0,0,0,1,0,0V72.38a0,0,0,0,1,0,0H3.5a0,0,0,0,1,0,0V17.85A14.72,14.72,0,0,1,18.22,3.13Z"/><line class="cls-2" x1="0.75" y1="137.51" y2="137.51"/><path class="cls-2" d="M269.33,137.34a.17.17,0,0,1-.17.17"/><line class="cls-2" y1="145.44" y2="144.69"/></g><g id="Layer_1-2" data-name="Layer 1"><path class="cls-3" d="M206.67,70.08"/><path class="cls-3" d="M248.67,80.49"/><path class="cls-4" d="M3.5,72.08H262a0,0,0,0,1,0,0v57.07A13.86,13.86,0,0,1,248.14,143H3.5a0,0,0,0,1,0,0V72.08A0,0,0,0,1,3.5,72.08Z"/><text class="cls-5" transform="translate(19.16 48.47)">ENGLISH</text><path class="cls-6" d="M253.28,5.33,216.87,38.75A11.69,11.69,0,0,0,214,42.16c-1.68,3.54,2,6.8,4.77,8.4a3.94,3.94,0,0,0,2,.64,4.6,4.6,0,0,0,2.91-1.67c5.21-5.1,10.19-10.43,15.17-15.76l20.67-22.13Zm8.8,4.16c.71-.74,1.44-1.41,2.06-2.18a3.71,3.71,0,0,0,0-4.73A11.18,11.18,0,0,0,262.54,1a3.56,3.56,0,0,0-4.13-.28,8,8,0,0,0-1.75,1.48l-.89.94Zm-49.93,39c-.57.57-1.11,1.1-1.65,1.65a3.09,3.09,0,0,0-1.06,2.42,2.57,2.57,0,0,0,2,2.46,2.75,2.75,0,0,0,2.67-.73c.54-.53,1.09-1,1.64-1.58l.26-.27Z"/><path class="cls-6" d="M253.29,5.27l6.29,6.37-.2.22-16.93,18C236.44,36.23,230,43,224,49.39a7.8,7.8,0,0,1-4.13,2.12c-.42.08-.06-.3-.48-.27a.33.33,0,0,1-.23-.09,20.19,20.19,0,0,1-5.78-5.83.33.33,0,0,1-.09-.21,6.27,6.27,0,0,1,.82-3.32,7.11,7.11,0,0,1,1.3-1.65L250.86,7.51Z"/><path class="cls-6" d="M262.08,9.49l-6.32-6.4.89-.94A8,8,0,0,1,258.41.67a3.56,3.56,0,0,1,4.13.28,11.18,11.18,0,0,1,1.62,1.63,3.71,3.71,0,0,1,0,4.73C263.52,8.08,262.79,8.75,262.08,9.49Z"/><path class="cls-6" d="M212.15,48.5,216,52.44l-.26.27c-.55.53-1.1,1-1.64,1.58a2.75,2.75,0,0,1-2.67.73,2.57,2.57,0,0,1-2-2.46,3.09,3.09,0,0,1,1.06-2.42C211,49.59,211.58,49.06,212.15,48.5Z"/></g><g id="Layer_2-2" data-name="Layer 2"><path class="cls-7" d="M94.34,97.55a4.24,4.24,0,0,1-2.67,4.18,12.65,12.65,0,0,1-4,.79c-.39,0-.58.19-.58.43q0-.07.79,2.09a56.35,56.35,0,0,1,3.39,18.86,48.38,48.38,0,0,1-.29,5.33,12.36,12.36,0,0,1-1.15,3,5.7,5.7,0,0,1-2.31,2.59,1,1,0,0,1-.58.14,4.57,4.57,0,0,1-2.67-1.19,4.52,4.52,0,0,1-1.73-2.05,39.32,39.32,0,0,1-1-9.36q0-3.1.5-9.54t.5-9.61q0-.22-1.15-.72a20.17,20.17,0,0,1-1.95-.86,2.48,2.48,0,0,1-1.3-2.23,3.4,3.4,0,0,1,.14-.94,1.63,1.63,0,0,1,1.44-1.33q1.08-.11,2-.11a1.15,1.15,0,0,0,.94-.79q.43-6,.86-12.17.72-6.77,3.82-10.66a2.16,2.16,0,0,1,1.59-.65,3.15,3.15,0,0,1,1.84.58q.83.58.9,1.08a7.71,7.71,0,0,1,.22,1.87,22.21,22.21,0,0,1-1.44,6.48,38.28,38.28,0,0,0-1.51,6.55q-.86,5.62-1.08,6.62-.07.43,1.66.43.36-.07,1.66-.43a5.75,5.75,0,0,1,1.66-.36Q94.27,95.53,94.34,97.55Zm-7,31.9a25.3,25.3,0,0,0,1.08-7.7A62.91,62.91,0,0,0,87,109.86q-.43-1.22-.72-1.22a.13.13,0,0,0-.14.14,58,58,0,0,0-.94,10.87,69,69,0,0,0,.43,7.78,3.71,3.71,0,0,0,.58,1.48q.5.83.86.83C87.21,129.73,87.31,129.64,87.36,129.44Z"/><path class="cls-7" d="M111.85,115.12q.36.22-.72,1.84a4.56,4.56,0,0,1-1.95,1.91,3.72,3.72,0,0,1-.72.07,4.48,4.48,0,0,1-2.45-.79q-1.23-.79-1.3-1.37a19.62,19.62,0,0,1-.58-5.26q0-1.58.22-4.9a16,16,0,0,0,0-3.17,2,2,0,0,1-1.44-2.09,1.67,1.67,0,0,1,.5-1.22q4.9-4.89,6.7-4.9a.33.33,0,0,1,.36.22,6.39,6.39,0,0,1,.36,2.16,17.84,17.84,0,0,1-.5,3.46,17.91,17.91,0,0,0-.5,3.53,21.71,21.71,0,0,0-.5,4.32Q109.33,113.1,111.85,115.12Zm0-30a3.52,3.52,0,0,1-1.08,3.38,2.59,2.59,0,0,1-1.66.65,3.44,3.44,0,0,1-1.8-.58q-1.23-.72-1.23-3.24a2.61,2.61,0,0,1,1.26-1.44,3.7,3.7,0,0,1,1.91-.65A2.61,2.61,0,0,1,111.85,85.09Z"/><path class="cls-7" d="M147.81,115.12a2.78,2.78,0,0,1-.72,1.94,5.12,5.12,0,0,1-1.41,1.51,2.22,2.22,0,0,1-1,.29,6.09,6.09,0,0,1-3.46-1.44,6.58,6.58,0,0,1-2-5.18,38.51,38.51,0,0,1,.36-3.89,20.28,20.28,0,0,0,.07-3.74.59.59,0,0,0-.65-.58,2.49,2.49,0,0,0-1.37.57q-2.52,1.93-5.33,7-3,5.35-5,7.13a.49.49,0,0,1-.36.14,1.44,1.44,0,0,1-.94-.46,1.25,1.25,0,0,1-.5-.82,55.19,55.19,0,0,1-.29-6.94,26.79,26.79,0,0,0-.58-6.94q-.15-.43-1.15-1t-1-1.07a1.26,1.26,0,0,1,.14-.57,6.73,6.73,0,0,1,2.2-2.07,5.85,5.85,0,0,1,2.63-1.29q2.81.36,2.81,4.32v2a6.18,6.18,0,0,0,.58,3.1.42.42,0,0,0,.36.22q.65,0,1.08-.94a52.55,52.55,0,0,0,4-4.82q2.74-3.6,3.89-5a3.16,3.16,0,0,1,2.59-1.15,2.83,2.83,0,0,1,3,2,42.57,42.57,0,0,1-.43,6.19,59.06,59.06,0,0,0-.5,6.12,19,19,0,0,0,.22,3q.22.72,1.41,1.15A2.24,2.24,0,0,1,147.81,115.12Z"/><path class="cls-7" d="M165.1,115.12q.36.22-.72,1.84a4.57,4.57,0,0,1-1.95,1.91,3.73,3.73,0,0,1-.72.07,4.48,4.48,0,0,1-2.45-.79q-1.23-.79-1.3-1.37a19.62,19.62,0,0,1-.58-5.26q0-1.58.22-4.9a16,16,0,0,0,0-3.17,2,2,0,0,1-1.44-2.09,1.67,1.67,0,0,1,.5-1.22q4.9-4.89,6.7-4.9a.33.33,0,0,1,.36.22,6.4,6.4,0,0,1,.36,2.16,17.85,17.85,0,0,1-.5,3.46,17.94,17.94,0,0,0-.5,3.53,21.68,21.68,0,0,0-.5,4.32Q162.58,113.1,165.1,115.12Zm0-30A3.52,3.52,0,0,1,164,88.48a2.59,2.59,0,0,1-1.66.65,3.44,3.44,0,0,1-1.8-.58q-1.23-.72-1.22-3.24a2.61,2.61,0,0,1,1.26-1.44,3.7,3.7,0,0,1,1.91-.65A2.61,2.61,0,0,1,165.1,85.09Z"/><path class="cls-7" d="M221.73,116.12a4.42,4.42,0,0,1-1,1.4,2.27,2.27,0,0,1-1.41.83,7.67,7.67,0,0,1-3.17-.58,5.39,5.39,0,0,1-2.23-1.37,10.46,10.46,0,0,1-.86-4.54q0-.94.14-3.67a32.6,32.6,0,0,0,.07-3.6,1.28,1.28,0,0,0-1.37-.94,1.53,1.53,0,0,0-1.37.86,25.14,25.14,0,0,0-4.68,6.7q-1.73,3.53-3.46,7.13a1.77,1.77,0,0,1-1.44.72,1.66,1.66,0,0,1-.94-.29,6.19,6.19,0,0,1-1.22-3.67q-.15-3.82-.22-4.25,1.15-16.85,1.44-19,1.37-10.8,4.9-17.71.36-1,1.15-1a2.41,2.41,0,0,1,1.62.79,2.15,2.15,0,0,1,.83,1.37q.22,5.18-2.59,14.33-3,9.5-3,14.18a21.28,21.28,0,0,0,.22,3q.5,1.08,1.37.43a24.06,24.06,0,0,0,5-6.12q2.81-4.46,4.9-5.9a2.15,2.15,0,0,1,1.08-.29,3.14,3.14,0,0,1,3,2.09,24.27,24.27,0,0,1,.07,5.69q-.36,4.82-.36,5.69a15.2,15.2,0,0,0,.5,4.1,7.86,7.86,0,0,0,1.87,1.37A2,2,0,0,1,221.73,116.12Z"/><path class="cls-8" d="M183.93,106.61"/><path class="cls-8" d="M189.43,109.13a6.31,6.31,0,0,1,.16,1.42,9.74,9.74,0,0,1-1,3.9q-1.49,3.37-1.56,3.6a25.27,25.27,0,0,1-3.05,3.6q-2.82,2.85-4.38,2.7a6.65,6.65,0,0,1-4.62-2,7.84,7.84,0,0,1-1.88-5.54,35,35,0,0,1,.47-4.65l.74-.41a2,2,0,0,1,.9-.34.7.7,0,0,1,.63.45,6.7,6.7,0,0,1,.39,2.47c0,.3,0,.75-.08,1.35V117q0,3.22,2.5,4.12,2.82-.15,4.07-4.57,0-.52.16-1.87a19.37,19.37,0,0,0,.16-2q0-2.62-2-3.22a13.1,13.1,0,0,0-4.54-1,16.16,16.16,0,0,1-4.46-.82,3.91,3.91,0,0,1-2.5-3.37c-.27-2.11,1.22-4.35,2.57-5.8a19.05,19.05,0,0,1,3.22-2.69A23.33,23.33,0,0,1,178,94a9.89,9.89,0,0,1,2.9-.66c1-.17,3.7.21,3.15,0-.12,0,3.2.58,2.21.59-.28,0,0,.62.11,1.06.1,2.45,1,2.37-.38,3.22a34.9,34.9,0,0,0-4.25.23c-2,.45-3,2-4.76,3.82a1.43,1.43,0,0,0-.16.67,1.94,1.94,0,0,0,1.41,1.8q3.13.6,6.18,1.27A8.23,8.23,0,0,1,189.43,109.13Z"/><path class="cls-8" d="M192.94,98.07a14.78,14.78,0,0,1-6.21.41,42.15,42.15,0,0,0-4.57-.54,2.7,2.7,0,0,0-2.6,1c-.37.31-.73.61-1,.91s-.82,1.59-3.87.49c-2.31-.93-3.06-.29-1-2.27C176.81,94,181,94.2,184.16,93.9c3.89-.3,6.42.16,7.34-1.48s-.54-3.67-3-6.49-5.63-5.85-3.68-10.78c2-5.62,7-7.76,11.08-9.34,4-1.42,6.5-2.4,7.53-6.14.49-1.86,1.89-2.87,3.13-2.19s1.84,2.88,1.35,4.73c-2,7.19-7,8.22-11,9.22s-6.5,2.06-7.49,4.8c-1,2.56.48,4.48,2.95,7.52,2.48,3.2,4.75,7,3.71,11A4.67,4.67,0,0,1,192.94,98.07Z"/><path class="cls-8" d="M174.78,95.75"/></g></g></svg>